<svg width="956" height="1080" viewBox="0 0 956 1080" fill="none" xmlns="http://www.w3.org/2000/svg">
<g clip-path="url(#clip0_13_4071)">
<rect width="956" height="1080" fill="#F8F8F8"/>
<path opacity="0.150019" fill-rule="evenodd" clip-rule="evenodd" d="M638.947 487.08C635.03 483.173 635.03 476.827 638.947 472.92L729.439 382.65C733.342 378.756 739.661 378.756 743.564 382.65L834.056 472.92C837.973 476.827 837.973 483.173 834.056 487.08L743.564 577.35C739.661 581.244 733.342 581.244 729.439 577.35L638.947 487.08Z" fill="#BFE7FF"/>
<g opacity="0.0375744" filter="url(#filter0_f_13_4071)">
<path fill-rule="evenodd" clip-rule="evenodd" d="M329.964 323.156C326.048 319.248 326.048 312.903 329.964 308.996L380.385 258.699C384.288 254.805 390.607 254.805 394.51 258.699L444.931 308.996C448.848 312.903 448.848 319.248 444.931 323.156L394.51 373.453C390.607 377.346 384.288 377.346 380.385 373.453L329.964 323.156Z" fill="#7367F0"/>
</g>
<path opacity="0.0659412" fill-rule="evenodd" clip-rule="evenodd" d="M382.439 492.149C378.522 488.242 378.522 481.897 382.439 477.99L570.478 290.413C574.381 286.519 580.699 286.519 584.602 290.413L772.641 477.99C776.558 481.897 776.558 488.242 772.641 492.149L584.602 679.726C580.699 683.62 574.381 683.62 570.478 679.726L382.439 492.149Z" fill="#7367F0"/>
<path opacity="0.0895647" fill-rule="evenodd" clip-rule="evenodd" d="M257.744 487.969C253.509 483.733 246.633 483.742 242.387 487.988L122.452 607.923C118.206 612.169 118.197 619.045 122.433 623.28L242.074 742.921C246.309 747.157 253.185 747.148 257.431 742.902L377.366 622.967C381.612 618.721 381.62 611.845 377.385 607.61L257.744 487.969ZM176.193 615.535L249.999 541.729L323.624 615.354L249.818 689.16L176.193 615.535Z" fill="#7367F0"/>
<path fill-rule="evenodd" clip-rule="evenodd" d="M315.293 594L315.292 737.767L315.439 737.625L315.405 744.757L398.073 826.951H387.053L315.292 755.567L315.293 826.912H306.588L306.588 758.289L237.608 826.951H225.5L306.588 746.308L306.588 594H315.293Z" fill="url(#paint0_linear_13_4071)"/>
<path fill-rule="evenodd" clip-rule="evenodd" d="M331.613 739.4C331.613 736.639 329.375 734.4 326.613 734.4H296.355C293.594 734.4 291.355 736.639 291.355 739.4V746.814C291.355 749.575 293.594 751.814 296.355 751.814H326.613C329.375 751.814 331.613 749.575 331.613 746.814V739.4Z" fill="#C8DAFF"/>
<path fill-rule="evenodd" clip-rule="evenodd" d="M243.25 391H395.801C398.655 391 400.967 393.304 400.967 396.146V650.6C400.967 653.363 398.781 655.618 396.038 655.741L395.781 655.747L243.23 655.156C240.385 655.145 238.084 652.844 238.084 650.009V396.146C238.084 393.304 240.397 391 243.25 391Z" fill="#AFA7FF"/>
<path fill-rule="evenodd" clip-rule="evenodd" d="M235.777 391H388.329C391.182 391 393.495 393.304 393.495 396.146V650.6C393.495 653.363 391.309 655.618 388.565 655.741L388.309 655.747L235.757 655.156C232.912 655.145 230.611 652.844 230.611 650.009V396.146C230.611 393.304 232.924 391 235.777 391Z" fill="#D5D1FF"/>
<path fill-rule="evenodd" clip-rule="evenodd" d="M243.141 396.317H380.755C384.019 396.317 386.665 398.953 386.665 402.204V642.436C386.665 645.688 384.019 648.323 380.755 648.323H243.141C239.877 648.323 237.23 645.688 237.23 642.436V402.204C237.23 398.953 239.877 396.317 243.141 396.317Z" fill="white"/>
<path fill-rule="evenodd" clip-rule="evenodd" d="M286.33 640.88H327.958C330.316 640.88 332.228 642.784 332.228 645.133V658.957H286.33C283.972 658.957 282.061 657.052 282.061 654.703V645.133C282.061 642.784 283.972 640.88 286.33 640.88Z" fill="#A7C3FF"/>
<path fill-rule="evenodd" clip-rule="evenodd" d="M331.16 654.703H335.43V658.957H331.16V654.703Z" fill="#A7C3FF"/>
<path fill-rule="evenodd" clip-rule="evenodd" d="M284.195 640.88H325.823C328.181 640.88 330.093 642.784 330.093 645.133V654.703C330.093 657.052 328.181 658.957 325.823 658.957H284.195C281.837 658.957 279.926 657.052 279.926 654.703V645.133C279.926 642.784 281.837 640.88 284.195 640.88Z" fill="#C8DAFF"/>
<rect x="463.771" y="422" width="67.6534" height="77.7504" rx="6" fill="#91D6FF"/>
<rect x="458.5" y="422" width="67.6534" height="77.7504" rx="6" fill="#E3F4FF"/>
<path fill-rule="evenodd" clip-rule="evenodd" d="M466.408 435.173C466.408 432.964 468.199 431.173 470.408 431.173H514.246C516.456 431.173 518.246 432.964 518.246 435.173V487.014C518.246 489.224 516.456 491.014 514.246 491.014H470.408C468.199 491.014 466.408 489.224 466.408 487.014V435.173Z" fill="white"/>
<path d="M466.408 435.173C466.408 432.964 468.199 431.173 470.408 431.173H471.68V491.014H470.408C468.199 491.014 466.408 489.224 466.408 487.014V435.173Z" fill="#91D6FF"/>
<path fill-rule="evenodd" clip-rule="evenodd" d="M508.763 474.879C509.073 474.879 509.267 474.544 509.112 474.275L491.804 444.118C491.648 443.845 491.253 443.848 491.102 444.124L474.501 474.281C474.353 474.55 474.547 474.879 474.854 474.879H508.763Z" fill="#83F2D5"/>
<path opacity="0.44687" fill-rule="evenodd" clip-rule="evenodd" d="M510.94 463.134C511.25 463.134 511.444 462.798 511.289 462.529L501.904 446.279C501.747 446.008 501.354 446.011 501.202 446.286L492.201 462.536C492.052 462.804 492.246 463.134 492.553 463.134H510.94Z" fill="#63CBE8"/>
<rect x="560.771" y="422" width="67.6534" height="77.7504" rx="6" fill="#91D6FF"/>
<rect x="555.5" y="422" width="67.6534" height="77.7504" rx="6" fill="#E3F4FF"/>
<path fill-rule="evenodd" clip-rule="evenodd" d="M563.408 435.173C563.408 432.964 565.199 431.173 567.408 431.173H611.246C613.456 431.173 615.246 432.964 615.246 435.173V487.014C615.246 489.224 613.456 491.014 611.246 491.014H567.408C565.199 491.014 563.408 489.224 563.408 487.014V435.173Z" fill="white"/>
<rect x="575.709" y="450.829" width="25.9191" height="25.7712" rx="0.4032" fill="#83F2D5"/>
<rect opacity="0.44687" x="589.766" y="440.782" width="19.7688" height="19.656" rx="0.4032" fill="#63CBE8"/>
<path d="M563.408 435.173C563.408 432.964 565.199 431.173 567.408 431.173H568.68V491.014H567.408C565.199 491.014 563.408 489.224 563.408 487.014V435.173Z" fill="#91D6FF"/>
<rect x="656.771" y="422" width="67.6534" height="77.7504" rx="6" fill="#91D6FF"/>
<rect x="651.5" y="422" width="67.6534" height="77.7504" rx="6" fill="#E3F4FF"/>
<path fill-rule="evenodd" clip-rule="evenodd" d="M659.408 435.173C659.408 432.964 661.199 431.173 663.408 431.173H707.246C709.456 431.173 711.246 432.964 711.246 435.173V487.014C711.246 489.224 709.456 491.014 707.246 491.014H663.408C661.199 491.014 659.408 489.224 659.408 487.014V435.173Z" fill="white"/>
<ellipse cx="685.985" cy="463.714" rx="18.2313" ry="18.1272" fill="#83F2D5"/>
<ellipse opacity="0.44687" cx="694.771" cy="449.3" rx="9.44511" ry="9.3912" fill="#63CBE8"/>
<path d="M659.408 435.173C659.408 432.964 661.199 431.173 663.408 431.173H664.68V491.014H663.408C661.199 491.014 659.408 489.224 659.408 487.014V435.173Z" fill="#91D6FF"/>
<g filter="url(#filter1_dd_13_4071)">
<path fill-rule="evenodd" clip-rule="evenodd" d="M217.5 566.389C217.5 563.413 219.913 561 222.889 561H368.981C371.957 561 374.369 563.413 374.369 566.389V613.9C374.369 616.876 371.957 619.289 368.981 619.289H222.889C219.913 619.289 217.5 616.876 217.5 613.9V566.389Z" fill="white"/>
</g>
<path opacity="0.465472" d="M268.615 595.149C268.615 594.173 269.406 593.383 270.382 593.383H299.75C300.726 593.383 301.517 594.173 301.517 595.149C301.517 596.124 300.726 596.915 299.75 596.915H270.382C269.406 596.915 268.615 596.124 268.615 595.149Z" fill="#FFBF29"/>
<path d="M268.615 585.14C268.615 584.164 269.406 583.373 270.382 583.373H288C288.975 583.373 289.766 584.164 289.766 585.14C289.766 586.115 288.975 586.906 288 586.906H270.382C269.406 586.906 268.615 586.115 268.615 585.14Z" fill="#FFBF29"/>
<path d="M326.343 583.535C326.847 582.425 328.154 581.935 329.261 582.441C329.627 582.608 329.94 582.872 330.166 583.204L330.247 583.331L334.567 590.695C334.609 590.765 334.699 590.788 334.769 590.747L334.787 590.734L334.804 590.718L337.103 588.113C337.909 587.199 339.302 587.114 340.213 587.922C340.273 587.975 340.33 588.031 340.384 588.09L340.462 588.181L343.834 592.331C343.885 592.394 343.977 592.403 344.04 592.352L344.058 592.335L344.072 592.315L349.398 583.691C350.038 582.654 351.396 582.334 352.431 582.975C352.591 583.075 352.738 583.194 352.867 583.331L352.961 583.436L355.442 586.408C355.807 586.845 355.749 587.494 355.313 587.859C354.902 588.204 354.301 588.172 353.928 587.8L353.865 587.73L351.384 584.758C351.374 584.746 351.362 584.736 351.349 584.728C351.291 584.692 351.219 584.701 351.172 584.745L351.147 584.775L345.821 593.4C345.692 593.609 345.529 593.795 345.339 593.95C344.428 594.693 343.102 594.586 342.321 593.727L342.239 593.632L338.867 589.483C338.862 589.476 338.857 589.471 338.851 589.465C338.8 589.42 338.727 589.417 338.673 589.452L338.643 589.478L336.344 592.083C336.191 592.257 336.011 592.406 335.811 592.523C334.797 593.121 333.501 592.813 332.859 591.842L332.795 591.739L328.474 584.376C328.459 584.349 328.436 584.329 328.408 584.316C328.347 584.288 328.276 584.306 328.235 584.356L328.214 584.389L324.004 593.647C323.847 593.992 323.605 594.29 323.301 594.513L323.184 594.593L318.192 597.782C317.714 598.088 317.078 597.947 316.773 597.467C316.484 597.014 316.594 596.421 317.01 596.098L317.087 596.044L322.078 592.855C322.094 592.845 322.108 592.832 322.119 592.817L322.133 592.792L326.343 583.535Z" fill="#FFBF29"/>
<ellipse cx="246.583" cy="590.733" rx="12.0443" ry="12.0698" fill="#FFBF29"/>
<g filter="url(#filter2_dd_13_4071)">
<path fill-rule="evenodd" clip-rule="evenodd" d="M217.5 418C217.5 413.582 221.082 410 225.5 410H365.977C370.395 410 373.977 413.582 373.977 418V534.215C373.977 538.633 370.395 542.215 365.977 542.215H225.5C221.082 542.215 217.5 538.633 217.5 534.215V418Z" fill="white"/>
</g>
<mask id="mask0_13_4071" style="mask-type:luminance" maskUnits="userSpaceOnUse" x="217" y="410" width="157" height="133">
<path fill-rule="evenodd" clip-rule="evenodd" d="M217.5 418C217.5 413.582 221.082 410 225.5 410H365.977C370.395 410 373.977 413.582 373.977 418V534.215C373.977 538.633 370.395 542.215 365.977 542.215H225.5C221.082 542.215 217.5 538.633 217.5 534.215V418Z" fill="white"/>
</mask>
<g mask="url(#mask0_13_4071)">
<path opacity="0.414737" fill-rule="evenodd" clip-rule="evenodd" d="M238.434 510.043C238.434 510.043 256.994 504.736 265.178 493.904C273.362 483.073 276.121 472.574 290.197 472.574C304.273 472.574 306.077 488.654 321.293 488.654C336.509 488.654 337.341 468.147 342.399 460.005C347.456 451.862 356.184 451.862 356.184 451.862V521.617C356.184 522.589 355.396 523.377 354.424 523.377H240.194C239.222 523.377 238.434 522.589 238.434 521.617V510.043Z" fill="#FFE3B5"/>
<g filter="url(#filter3_d_13_4071)">
<path d="M238.434 511.167C238.434 511.167 256.994 505.837 265.178 494.959C273.362 484.08 276.121 473.535 290.197 473.535C304.273 473.535 306.077 489.685 321.293 489.685C336.509 489.685 337.341 469.09 342.399 460.912C347.456 452.734 356.184 452.734 356.184 452.734" stroke="#FFBF29" stroke-width="2.64" stroke-linecap="round"/>
</g>
<rect x="229.711" y="423.082" width="48.8444" height="5.23279" rx="2.61639" fill="#FFBF29"/>
<path opacity="0.465472" d="M229.711 438.78C229.711 437.335 230.882 436.164 232.327 436.164H249.772C251.217 436.164 252.389 437.335 252.389 438.78C252.389 440.225 251.217 441.397 249.772 441.397H232.327C230.882 441.397 229.711 440.225 229.711 438.78Z" fill="#FFBF29"/>
<ellipse cx="343.535" cy="426.134" rx="3.05278" ry="3.05246" fill="white"/>
<ellipse cx="352.258" cy="426.134" rx="3.05278" ry="3.05246" fill="white"/>
<ellipse cx="360.98" cy="426.134" rx="3.05278" ry="3.05246" fill="white"/>
</g>
<path fill-rule="evenodd" clip-rule="evenodd" d="M584.068 813.984C584.068 813.092 583.371 812.355 582.48 812.306L542.455 810.108H530.181L489.993 812.307C489.103 812.356 488.405 813.092 488.405 813.984V816.965H584.068V813.984Z" fill="#BFE7FF"/>
<path fill-rule="evenodd" clip-rule="evenodd" d="M540.791 741.996H531.68V810.565H540.791V741.996Z" fill="#BFE7FF"/>
<rect width="13.6662" height="15.9994" rx="0.84" transform="matrix(-1 0 0 1 543.068 800.966)" fill="#91D6FF"/>
<path fill-rule="evenodd" clip-rule="evenodd" d="M547.625 737.808C547.625 737.344 547.249 736.968 546.785 736.968H525.688C525.224 736.968 524.848 737.344 524.848 737.808V745.085C524.848 745.428 525.057 745.737 525.375 745.865L530.392 747.878C530.491 747.918 530.597 747.939 530.705 747.939H541.768C541.876 747.939 541.982 747.918 542.081 747.878L547.098 745.865C547.416 745.737 547.625 745.428 547.625 745.085V737.808Z" fill="#91D6FF"/>
<rect width="9.11077" height="9.14254" rx="2.1" transform="matrix(-1 0 0 1 586.346 816.965)" fill="#91D6FF"/>
<rect width="9.11077" height="9.14254" rx="2.1" transform="matrix(-1 0 0 1 495.238 816.965)" fill="#91D6FF"/>
<rect width="9.11077" height="9.14254" rx="2.1" transform="matrix(-1 0 0 1 540.791 816.965)" fill="#91D6FF"/>
<path fill-rule="evenodd" clip-rule="evenodd" d="M547.17 731.482C547.17 727.443 543.895 724.168 539.856 724.168L482.509 724.168C478.469 724.168 475.195 727.443 475.195 731.482C475.195 735.522 478.469 738.796 482.509 738.796H539.856C543.895 738.796 547.17 735.522 547.17 731.482Z" fill="#BFE7FF"/>
<path fill-rule="evenodd" clip-rule="evenodd" d="M582.701 656.513H569.946C569.946 656.513 569.946 674.798 569.946 693.084C569.946 711.369 549.447 729.654 549.447 729.654H566.302C566.302 729.654 582.701 714.082 582.701 693.084C582.701 674.798 582.701 656.513 582.701 656.513Z" fill="#91D6FF"/>
<path fill-rule="evenodd" clip-rule="evenodd" d="M577.234 656.513H564.479C564.479 656.513 564.479 674.798 564.479 693.084C564.479 711.369 543.98 729.654 543.98 729.654H559.013C559.013 729.654 577.234 714.51 577.234 693.084C577.234 674.798 577.234 656.513 577.234 656.513Z" fill="#BFE7FF"/>
<path fill-rule="evenodd" clip-rule="evenodd" d="M614.588 638.4C614.588 633.761 610.827 630 606.188 630H540.504C535.865 630 532.104 633.761 532.104 638.4V675.415C532.104 680.054 535.865 683.815 540.504 683.815H606.188C610.827 683.815 614.588 680.054 614.588 675.415L614.588 638.4Z" fill="#BFE7FF"/>
<path fill-rule="evenodd" clip-rule="evenodd" d="M614.982 635.907C614.982 632.645 612.338 630 609.076 630C605.814 630 603.169 632.645 603.169 635.907V677.909C603.169 681.171 605.814 683.815 609.076 683.815C612.338 683.815 614.982 681.171 614.982 677.909L614.982 635.907Z" fill="#91D6FF"/>
<path fill-rule="evenodd" clip-rule="evenodd" d="M591.812 731.482C591.812 727.443 588.538 724.168 584.498 724.168L528.974 724.168C524.934 724.168 521.66 727.443 521.66 731.482C521.66 735.522 524.934 738.796 528.974 738.796H584.498C588.538 738.796 591.812 735.522 591.812 731.482Z" fill="#91D6FF"/>
<path fill-rule="evenodd" clip-rule="evenodd" d="M491.61 781.415C491.61 781.415 496.856 792.01 492.555 795.349C488.248 798.688 476.872 804.946 476.872 804.946L507.012 803.052L500.312 779.944L491.61 781.415Z" fill="url(#paint1_linear_13_4071)"/>
<path fill-rule="evenodd" clip-rule="evenodd" d="M504.025 791.003C503.076 791.455 504.636 795.712 501.299 795.413C497.963 795.115 495.868 790.714 493.408 791C490.947 791.285 489.385 795.717 484.7 798.803C480.017 801.89 473.072 805.572 473.537 808.675C474.002 811.779 484.931 812.61 490.468 811.582C496.005 810.556 498.589 808.33 502.181 808.507C505.773 808.685 508.031 808.245 509.157 805.939C510.282 803.632 505.119 790.48 504.025 791.003Z" fill="#EEDFE8"/>
<path fill-rule="evenodd" clip-rule="evenodd" d="M503.758 805.167L503.451 805.149C498.999 804.774 495.945 807.574 491.708 808.363C487.47 809.153 476.295 809.426 474.51 806.775C474.425 806.65 474.347 806.521 474.274 806.391C473.674 807.128 473.392 807.917 473.537 808.836C474.002 811.789 484.932 812.58 490.469 811.603C496.006 810.626 498.591 808.507 502.183 808.676L502.822 808.7C506.045 808.788 508.101 808.294 509.16 806.232C509.417 805.729 509.359 804.649 509.101 803.283C507.598 804.311 505.702 805.226 503.758 805.167Z" fill="#EC7AA5"/>
<path fill-rule="evenodd" clip-rule="evenodd" d="M537.011 688.032C527.887 688.439 477.101 699.672 467.875 701.58C458.648 703.488 450.847 713.814 457.883 725.772C465.785 739.194 486.175 777.314 491.126 785.907C493.576 790.16 505.937 787.775 503.034 780.636C497.621 767.329 495.107 733.898 481.307 721.709C481.307 721.709 527.717 729.786 547.764 720.534C562.333 713.808 559.037 687.047 537.011 688.032Z" fill="#413C75"/>
<path fill-rule="evenodd" clip-rule="evenodd" d="M473.357 631.074C473.357 631.074 473.461 625.65 470.864 621.77C468.266 617.89 468.163 613.768 466.198 613.903C464.232 614.038 466.179 623.618 466.179 623.618C466.179 623.618 463.685 622.665 461.893 621.46C460.102 620.255 454.669 614.314 453.399 615.367C451.247 617.16 454.714 627.279 456.602 629.302C458.497 631.326 467.846 636.98 467.846 636.98L495.381 664.719L499.498 649.993L473.357 631.074Z" fill="url(#paint2_linear_13_4071)"/>
<path fill-rule="evenodd" clip-rule="evenodd" d="M528.432 628.625C524.187 638.47 516.415 656.556 513.211 661.951C509.196 668.708 502.865 671.685 495.451 666.672C493.9 665.623 489.446 661.954 489.446 661.954C490.105 655.532 492.504 650.164 496.64 645.849L499.449 648.172C499.449 648.172 507.415 627.752 513.823 615.923C519.372 605.689 534.893 613.659 528.432 628.625Z" fill="#EA5455"/>
<path fill-rule="evenodd" clip-rule="evenodd" d="M499.367 648.183C499.367 648.183 497.228 655.44 496.728 655.019C496.227 654.599 497.11 646.286 497.11 646.286L499.367 648.183Z" fill="black" fill-opacity="0.159856"/>
<path fill-rule="evenodd" clip-rule="evenodd" d="M546.778 590.411V599.123L553.175 593.972C553.175 593.972 555.142 585.626 556.741 579.427C557.744 575.539 560.187 562.384 550.351 563C542.293 548.796 518.827 557.587 518.64 574.94C518.416 595.811 518.599 603.937 518.599 603.937C531.869 604.698 539.337 602.78 546.778 590.411Z" fill="#422851"/>
<path fill-rule="evenodd" clip-rule="evenodd" d="M553.314 606.997C553.314 606.997 547.364 605.6 547.157 595.85C546.951 586.099 547.096 582.77 547.096 582.77L533.988 582.534C533.988 582.534 533.845 593.401 533.843 597.332C533.837 606.889 526.809 607.672 526.809 607.672C526.809 607.672 528.01 615.558 539.888 616.225C549.161 616.748 553.314 606.997 553.314 606.997Z" fill="url(#paint3_linear_13_4071)"/>
<path fill-rule="evenodd" clip-rule="evenodd" d="M550.15 577.901C555.998 577.675 555.044 586.235 548.97 586.224C548.97 586.224 545.442 598.384 533.192 598.384C523.244 598.384 522.597 584.211 522.507 581.384C522.41 578.369 522.398 568.465 522.398 568.465L550.378 568.452L550.15 577.901Z" fill="url(#paint4_linear_13_4071)"/>
<path fill-rule="evenodd" clip-rule="evenodd" d="M550.603 577.845C548.18 578.245 548.474 579.849 547.815 579.709C544.469 578.997 530.925 579.936 529.181 572.488C527.011 577.141 526.48 578.285 521.702 579.534V565.899L551.924 563C551.924 563 551.455 577.704 550.603 577.845Z" fill="#422851"/>
<path d="M535.555 590.215C535.555 590.215 532.637 592.685 529.258 590.372" stroke="#F77B7B" stroke-width="1.5" stroke-linecap="round"/>
<path d="M533.629 593.076C532.721 593.494 531.847 593.525 531.067 593.107" stroke="#F49494" stroke-linecap="round"/>
<path d="M549.555 582.505C549.495 581.132 549.914 580.041 551.314 579.822" stroke="#F77B7B" stroke-linecap="round"/>
<path fill-rule="evenodd" clip-rule="evenodd" d="M551.984 606C544.516 610.574 535.882 612.251 527.845 607.284C514.73 633.145 511.461 664.002 514.616 698.106C533.741 705.678 549.815 704.189 563.5 695.534L551.984 606Z" fill="#FFE4F4"/>
<path fill-rule="evenodd" clip-rule="evenodd" d="M458.915 781.84C458.915 781.84 459.073 794.311 448.797 798.974C438.528 803.635 431.211 803.355 432.143 806.959C433.074 810.563 459.804 810.418 462.3 807.599C464.428 805.201 469.054 782.872 470.328 784.579L458.915 781.84Z" fill="url(#paint5_linear_13_4071)"/>
<path fill-rule="evenodd" clip-rule="evenodd" d="M466.379 799.452C464.804 798.319 463.48 804.853 459.203 803.036C454.925 801.219 458.298 795.213 455.606 794.105C452.914 792.998 447.716 798.953 440.812 800.401C433.908 801.848 428.303 803.114 426.71 805.801C425.338 808.111 426.71 808.849 426.71 808.849C426.71 808.849 433.356 812.168 437.486 812.899C443.486 813.96 460.825 814.667 462.725 812.732C463.892 811.545 467.167 800.019 466.379 799.452Z" fill="#EEDFE8"/>
<path fill-rule="evenodd" clip-rule="evenodd" d="M426.335 806.073C425.033 808.196 427.087 809.3 427.333 809.422L428.324 809.844C430.204 810.626 434.446 812.302 437.581 812.901C443.329 814 461.128 814.651 463.043 812.762C463.379 812.43 463.795 811.217 464.197 809.641L462.976 809.774C457.098 810.397 443.977 811.524 437.502 809.998C431.754 808.644 428.608 806.417 427.173 805.117C426.824 805.416 426.542 805.734 426.335 806.073Z" fill="#EC7AA5"/>
<path fill-rule="evenodd" clip-rule="evenodd" d="M565.602 684.177C565.602 684.177 578.868 712.192 560.225 721.812C542.196 731.115 488.224 720.112 488.224 720.112C488.224 720.112 489.189 727.877 488.224 734.802C485.706 752.889 473.726 783.023 471.192 786.809C467.687 792.046 457.01 788.097 456.809 783.737C456.607 779.377 464.857 723.693 466.112 713.075C467.36 702.456 471.3 700.913 482.809 698.01C485.453 697.343 516.72 689.573 519.584 689.8C544.195 691.746 565.602 684.177 565.602 684.177Z" fill="#524D87"/>
<path fill-rule="evenodd" clip-rule="evenodd" d="M551.06 718.921C533.211 720.921 485.956 716.798 484.058 718.671C482.246 720.46 482.549 751.575 478.484 769.585L479.102 767.884C482.925 757.267 486.894 744.354 488.224 734.802C489.189 727.877 488.224 720.112 488.224 720.112L490.401 720.533C500.66 722.46 544.36 729.999 560.225 721.812C568.822 717.376 572.33 710.006 570.749 699.703C568.027 711.349 561.464 717.755 551.06 718.921Z" fill="white" fill-opacity="0.056108"/>
<path fill-rule="evenodd" clip-rule="evenodd" d="M551.657 606.021C539.288 646.537 531.871 703.979 570.499 693.986C549.98 656.206 577.875 639.202 571.552 619.676C569.39 613 551.818 605.497 551.657 606.021Z" fill="#EA5455"/>
<path fill-rule="evenodd" clip-rule="evenodd" d="M565.607 622.846C551.628 624.955 563.152 649.362 558.537 653.039C553.923 656.716 545.891 657.113 545.025 659.359C543.285 663.874 551.699 675.271 570.267 693.551L570.5 693.986C552.625 661.076 571.488 643.931 572.469 627.151C570.398 623.903 568.11 622.468 565.607 622.846Z" fill="black" fill-opacity="0.159856"/>
<path fill-rule="evenodd" clip-rule="evenodd" d="M528.5 607C523.78 618.838 521.511 628.127 519.394 645.503C517.629 659.975 518.513 689.84 518.513 689.84L512.68 690.987C512.68 690.987 508.51 644.848 509.904 638.907C512.244 628.938 513.829 623.113 516.918 614C518.62 608.998 528.5 607 528.5 607Z" fill="#EA5455"/>
<path fill-rule="evenodd" clip-rule="evenodd" d="M549.06 652.017C549.06 652.017 541.444 644.392 538.807 643.507C536.169 642.622 521.722 641.559 521.82 643.559C521.931 645.701 531.227 645.578 532.087 646.632C532.946 647.685 534.142 655.888 537.391 656.697C540.634 657.506 547.357 659.9 547.357 659.9L577.281 675.362L574.093 659.901L549.06 652.017Z" fill="url(#paint6_linear_13_4071)"/>
<path fill-rule="evenodd" clip-rule="evenodd" d="M571.98 619.731C581.057 632.542 588.807 652.056 591.782 659.664C594.756 667.272 591.756 678.747 578.675 676.494C577.118 676.226 574.584 675.24 574.584 675.24C569.775 668.647 568.931 662.987 570.726 657.947L572.418 658.661C572.418 658.661 559.417 635.617 556.242 629.439C550.94 619.122 563.985 608.444 571.98 619.731Z" fill="#EA5455"/>
<path fill-rule="evenodd" clip-rule="evenodd" d="M572.417 658.661C572.417 658.661 579.021 661.887 578.19 660.468C577.36 659.049 569.902 654.182 569.902 654.182L572.417 658.661Z" fill="black" fill-opacity="0.159856"/>
<path fill-rule="evenodd" clip-rule="evenodd" d="M402.639 679.555H414.639V827.135H402.639V679.555Z" fill="#DBDBDB"/>
<path fill-rule="evenodd" clip-rule="evenodd" d="M400.639 679.555H408.639V827.135H400.639V679.555Z" fill="#EFEFEF"/>
<path fill-rule="evenodd" clip-rule="evenodd" d="M325.475 679.555H337.475V827.135H325.475V679.555Z" fill="#DBDBDB"/>
<path fill-rule="evenodd" clip-rule="evenodd" d="M323.475 679.555H331.475V827.135H323.475V679.555Z" fill="#EFEFEF"/>
<path fill-rule="evenodd" clip-rule="evenodd" d="M607.133 679.555H619.133V827.135H607.133V679.555Z" fill="#DBDBDB"/>
<path fill-rule="evenodd" clip-rule="evenodd" d="M605.133 679.555H613.133V827.135H605.133L605.133 679.555Z" fill="#EFEFEF"/>
<path fill-rule="evenodd" clip-rule="evenodd" d="M524.971 679.555L536.971 679.555V827.135H524.971V679.555Z" fill="#DBDBDB"/>
<path fill-rule="evenodd" clip-rule="evenodd" d="M522.971 679.555H530.971V827.135H522.971V679.555Z" fill="#EFEFEF"/>
<path fill-rule="evenodd" clip-rule="evenodd" d="M406.268 676.68C406.268 675.752 407.02 675 407.948 675H620.951C621.879 675 622.631 675.752 622.631 676.68V692.32C622.631 693.248 621.879 694 620.951 694H407.948C407.02 694 406.268 693.248 406.268 692.32V676.68Z" fill="#DBDBDB"/>
<path fill-rule="evenodd" clip-rule="evenodd" d="M314.977 676.68C314.977 675.752 315.729 675 316.657 675H528.747C529.675 675 530.427 675.752 530.427 676.68V692.32C530.427 693.248 529.675 694 528.747 694H316.657C315.729 694 314.977 693.248 314.977 692.32V676.68Z" fill="#DBDBDB"/>
<rect x="296.5" y="675" width="338" height="9.76056" rx="4.88028" fill="#EFEFEF"/>
<path fill-rule="evenodd" clip-rule="evenodd" d="M372.855 643.469V639.281L378.139 639.281L378.139 637.06C378.139 635.833 379.125 634.839 380.34 634.839C381.556 634.839 382.542 635.833 382.542 637.06V641.692C382.542 642.674 381.753 643.469 380.781 643.469H372.855Z" fill="#02B596"/>
<path fill-rule="evenodd" clip-rule="evenodd" d="M358.199 645.881V641.883C358.199 640.656 359.185 639.662 360.401 639.662C361.617 639.662 362.602 640.656 362.602 641.883L362.602 644.103H365.243L365.244 633.887C365.244 631.188 367.412 629 370.087 629C372.762 629 374.93 631.188 374.93 633.887V659.208H365.244L365.243 648.545L360.841 648.546C359.382 648.546 358.199 647.353 358.199 645.881Z" fill="#02D3AF"/>
<path fill-rule="evenodd" clip-rule="evenodd" d="M358.619 652.269H380.983L379.384 673.79C379.34 674.378 378.854 674.834 378.269 674.834H361.334C360.749 674.834 360.263 674.378 360.219 673.79L358.619 652.269Z" fill="url(#paint7_linear_13_4071)"/>
<path fill-rule="evenodd" clip-rule="evenodd" d="M358.618 652.269H380.982C381.6 652.269 382.101 652.774 382.101 653.398V657.91C382.101 658.533 381.6 659.039 380.982 659.039H358.618C358.001 659.039 357.5 658.533 357.5 657.91V653.398C357.5 652.774 358.001 652.269 358.618 652.269Z" fill="#FFB3A4"/>
<path fill-rule="evenodd" clip-rule="evenodd" d="M431.174 674.027C431.174 673.195 431.849 672.52 432.681 672.52H537.938C538.77 672.52 539.445 673.195 539.445 674.027C539.445 674.86 538.77 675.535 537.938 675.535H432.681C431.849 675.535 431.174 674.86 431.174 674.027Z" fill="#8F84FF"/>
<path fill-rule="evenodd" clip-rule="evenodd" d="M502.496 674.027C502.496 673.195 503.171 672.52 504.004 672.52H537.937C538.77 672.52 539.445 673.195 539.445 674.027C539.445 674.86 538.77 675.535 537.937 675.535H504.004C503.171 675.535 502.496 674.86 502.496 674.027Z" fill="#7367F0"/>
<path fill-rule="evenodd" clip-rule="evenodd" d="M426.019 631.056C425.743 628.905 427.42 627 429.589 627H495.858C497.67 627 499.199 628.346 499.429 630.144L504.344 668.593C504.619 670.745 502.942 672.65 500.773 672.65H434.505C432.693 672.65 431.163 671.303 430.934 669.506L426.019 631.056Z" fill="#7367F0"/>
<path fill-rule="evenodd" clip-rule="evenodd" d="M426.019 631.056C425.743 628.905 427.42 627 429.589 627H493.524C495.335 627 496.865 628.346 497.095 630.144L502.01 668.593C502.285 670.745 500.608 672.65 498.439 672.65H434.505C432.693 672.65 431.163 671.303 430.934 669.506L426.019 631.056Z" fill="#B1A9FF"/>
<ellipse cx="462.815" cy="650.551" rx="4.64831" ry="5.07496" transform="rotate(-37 462.815 650.551)" fill="white"/>
<path fill-rule="evenodd" clip-rule="evenodd" d="M552.5 665C552.5 664.448 552.948 664 553.5 664H599C602.038 664 604.5 666.462 604.5 669.5C604.5 672.538 602.038 675 599 675H553.5C552.948 675 552.5 674.552 552.5 674V665Z" fill="#F16B79"/>
<path d="M552.5 667.2C552.5 666.648 552.948 666.2 553.5 666.2H579.533C581.356 666.2 582.833 667.677 582.833 669.5C582.833 671.323 581.356 672.8 579.533 672.8H553.5C552.948 672.8 552.5 672.352 552.5 671.8V667.2Z" fill="#EAEFFF"/>
<rect width="131.195" height="198.348" rx="7.68" transform="matrix(-1 0 0 1 787.5 629)" fill="#91D6FF"/>
<rect width="95.7932" height="198.348" rx="7.68" transform="matrix(-1 0 0 1 752.098 629)" fill="#BFE7FF"/>
<path fill-rule="evenodd" clip-rule="evenodd" d="M743.768 770.304C743.768 766.062 740.329 762.624 736.088 762.624H672.314C668.072 762.624 664.634 766.062 664.634 770.304V811.316C664.634 815.558 668.072 818.996 672.314 818.996H736.088C740.329 818.996 743.768 815.558 743.768 811.316V770.304Z" fill="#E3F4FF"/>
<path d="M716.697 762.624H691.708V769.223C691.708 771.344 693.427 773.063 695.548 773.063H712.857C714.978 773.063 716.697 771.344 716.697 769.223V762.624Z" fill="#91D6FF"/>
<path fill-rule="evenodd" clip-rule="evenodd" d="M743.768 650.226C743.768 649.121 742.872 648.226 741.768 648.226H672.314C668.072 648.226 664.634 651.664 664.634 655.906V686.044C664.634 690.285 668.072 693.724 672.314 693.724H741.768C742.872 693.724 743.768 692.828 743.768 691.724V650.226Z" fill="#91D6FF"/>
<path fill-rule="evenodd" clip-rule="evenodd" d="M726.414 645.032C726.414 640.79 722.976 637.352 718.734 637.352H654.961C650.719 637.352 647.281 640.79 647.281 645.032V686.044C647.281 690.286 650.719 693.724 654.961 693.724H718.734C722.976 693.724 726.414 690.286 726.414 686.044V645.032Z" fill="#E3F4FF"/>
<path fill-rule="evenodd" clip-rule="evenodd" d="M743.768 707.668C743.768 703.426 740.329 699.988 736.088 699.988H672.314C668.072 699.988 664.634 703.426 664.634 707.668V748.68C664.634 752.922 668.072 756.36 672.314 756.36H736.088C740.329 756.36 743.768 752.922 743.768 748.68V707.668Z" fill="#E3F4FF"/>
<path d="M716.697 699.988H691.708V706.587C691.708 708.708 693.427 710.427 695.548 710.427H712.857C714.978 710.427 716.697 708.708 716.697 706.587V699.988Z" fill="#91D6FF"/>
<path d="M699.342 637.352H674.352V643.951C674.352 646.072 676.071 647.791 678.192 647.791H695.502C697.623 647.791 699.342 646.072 699.342 643.951V637.352Z" fill="#91D6FF"/>
<path fill-rule="evenodd" clip-rule="evenodd" d="M726.861 607.677H733.901L741.5 628.354H734.46L726.861 607.677Z" fill="#7367F0"/>
<path fill-rule="evenodd" clip-rule="evenodd" d="M707.925 587.633C708.004 587.264 708.33 587 708.707 587H740.512C741.02 587 741.4 587.469 741.294 587.967L732.835 627.72C732.756 628.09 732.43 628.354 732.052 628.354H700.248C699.739 628.354 699.36 627.885 699.465 627.387L707.925 587.633Z" fill="#A7C3FF"/>
<path fill-rule="evenodd" clip-rule="evenodd" d="M706.165 587.633C706.244 587.264 706.57 587 706.948 587H738.752C739.261 587 739.64 587.469 739.534 587.967L731.075 627.72C730.996 628.09 730.67 628.354 730.292 628.354H698.488C697.979 628.354 697.6 627.885 697.706 627.387L706.165 587.633Z" fill="url(#paint8_linear_13_4071)"/>
<path d="M707.903 589.293C707.973 588.961 708.267 588.723 708.607 588.723H736.211C736.669 588.723 737.011 589.145 736.916 589.593L729.339 625.199C729.268 625.532 728.974 625.769 728.634 625.769H701.03C700.572 625.769 700.23 625.347 700.326 624.899L707.903 589.293Z" fill="#B3FFEB"/>
<mask id="mask1_13_4071" style="mask-type:luminance" maskUnits="userSpaceOnUse" x="700" y="588" width="37" height="38">
<path d="M707.903 589.293C707.973 588.961 708.267 588.723 708.607 588.723H736.211C736.669 588.723 737.011 589.145 736.916 589.593L729.339 625.199C729.268 625.532 728.974 625.769 728.634 625.769H701.03C700.572 625.769 700.23 625.347 700.326 624.899L707.903 589.293Z" fill="white"/>
</mask>
<g mask="url(#mask1_13_4071)">
<ellipse cx="716.752" cy="599.385" rx="3.85" ry="3.76923" fill="white"/>
<ellipse cx="705.477" cy="627.654" rx="17.875" ry="17.5" fill="#6DE9C9"/>
<ellipse cx="733.527" cy="622.539" rx="21.175" ry="20.4615" fill="#83F2D5"/>
</g>
<path fill-rule="evenodd" clip-rule="evenodd" d="M228.116 544.293C216.393 541.58 215.621 525.588 224.534 520.041C215.342 500.892 236.598 481.879 251.159 493.605C260.704 489.544 268.637 505.389 259.755 517.695C263.479 538.826 255.899 544.287 242.236 544.519L228.116 544.293Z" fill="#422851"/>
<path fill-rule="evenodd" clip-rule="evenodd" d="M228.262 540.474C228.262 540.474 233.965 539.143 234.162 529.857C234.36 520.57 234.221 517.4 234.221 517.4L246.783 517.175C246.783 517.175 246.92 527.525 246.922 531.268C246.927 541.323 253.977 540.474 253.977 540.474C253.977 540.474 252.512 548.626 241.129 549.262C232.242 549.76 228.262 540.474 228.262 540.474Z" fill="url(#paint9_linear_13_4071)"/>
<path fill-rule="evenodd" clip-rule="evenodd" d="M231.294 512.763C225.69 512.548 226.604 520.7 232.425 520.689C232.425 520.689 235.807 532.27 247.545 532.27C257.079 532.27 257.699 518.772 257.785 516.08C257.878 513.208 257.89 503.776 257.89 503.776L231.076 503.764L231.294 512.763Z" fill="url(#paint10_linear_13_4071)"/>
<path d="M245.281 524.49C245.281 524.49 248.077 526.843 251.315 524.64" stroke="#F77B7B" stroke-width="1.5" stroke-linecap="round"/>
<path d="M247.127 527.215C247.997 527.614 248.834 527.643 249.582 527.245" stroke="#F49494" stroke-linecap="round"/>
<path d="M231.866 517.148C231.923 515.84 231.522 514.801 230.18 514.593" stroke="#F77B7B" stroke-linecap="round"/>
<path fill-rule="evenodd" clip-rule="evenodd" d="M230.408 511.756C230.408 511.756 233.479 515.852 234.101 515.873C234.723 515.895 234.941 510.546 234.941 510.546C238.709 510.26 248.245 508.373 250.582 503.977C252.217 507.856 255.342 509.579 257.395 509.248L257.784 517.489L258.742 500.922H229.656L230.408 511.756Z" fill="#422851"/>
<path fill-rule="evenodd" clip-rule="evenodd" d="M303.552 545.329C303.552 545.329 301.878 535.988 302.48 534.097C302.994 532.462 307.852 530.104 307.852 530.104C307.852 530.104 316.303 516.736 318.152 518.097C319.656 519.201 313.751 529.057 313.751 529.057C313.751 529.057 319.136 534.714 319.061 537.243C318.986 539.772 310.272 547.689 310.272 547.689L303.552 545.329Z" fill="url(#paint11_linear_13_4071)"/>
<path fill-rule="evenodd" clip-rule="evenodd" d="M308.035 529.97C308.035 529.97 311.778 529.46 312.373 530.627C312.881 531.621 309.772 534.439 309.772 535.232C309.772 536.024 309.816 542.021 310.066 542.076C310.316 542.13 313.815 532.289 313.069 530.207C312.455 528.499 308.035 529.97 308.035 529.97Z" fill="#F28585"/>
<path fill-rule="evenodd" clip-rule="evenodd" d="M259.05 544.224C253.433 541.889 246.632 548.592 250.775 554.991C257.395 565.223 281.833 592.088 293.097 592.128C303.215 592.163 312.51 551.919 312.297 548.711C312.084 545.503 303.871 541.49 300.888 543.756C297.897 546.021 288.438 572.569 288.438 572.569C288.438 572.569 264.755 546.598 259.05 544.224Z" fill="#7367F0"/>
<path fill-rule="evenodd" clip-rule="evenodd" d="M288.438 572.569C288.438 572.569 291.634 578.072 291.929 577.249C292.224 576.426 289.597 569.333 289.597 569.333L288.438 572.569Z" fill="black" fill-opacity="0.302803"/>
<path fill-rule="evenodd" clip-rule="evenodd" d="M251.846 800.709C251.846 800.709 250.726 809.915 254.903 813.431C259.079 816.946 242.967 815.677 242.967 815.677L242.85 800.562L251.846 800.709Z" fill="url(#paint12_linear_13_4071)"/>
<path fill-rule="evenodd" clip-rule="evenodd" d="M242.813 808.868C244.248 808.945 244.019 813.26 245.944 813.08C247.868 812.899 251.122 808.598 253.912 810.044C256.808 811.549 272.68 821.602 273.614 824.186C274.66 827.066 267.891 827.281 263.052 827.071C258.207 826.86 255.974 824.68 253.622 824.734C251.265 824.788 250.708 826.257 248.945 826.662C247.157 827.073 242.683 827.011 242.268 825.724C241.835 824.388 241.384 808.79 242.813 808.868Z" fill="#222D4E"/>
<path fill-rule="evenodd" clip-rule="evenodd" d="M226.5 613C226.5 613 236.13 705.719 236.916 714.191C237.702 722.663 236.13 728.797 235.486 737.548C234.841 746.298 237.943 801.332 237.943 801.332C242.503 804.086 247.93 804.627 254.829 801.415C254.829 801.415 261.165 732.856 261.103 717.241C261.066 707.926 262.031 614.046 262.031 614.046L226.5 613Z" fill="#2B256A"/>
<path fill-rule="evenodd" clip-rule="evenodd" d="M241.889 714.952C242.68 720.818 240.555 731.928 235.514 748.283L235.451 745.594C235.378 742.038 235.376 739.265 235.474 737.726L235.486 737.548C236.109 729.089 237.599 723.075 236.988 715.031L236.855 713.544C236.525 710.116 235.499 700.058 234.213 687.553L234.919 689.596C238.824 701.002 241.147 709.454 241.889 714.952Z" fill="white" fill-opacity="0.0771689"/>
<path fill-rule="evenodd" clip-rule="evenodd" d="M255.595 811.068L254.947 812.056C254.635 812.533 254.784 813.175 255.275 813.465L264.841 819.116C265.135 819.289 265.496 819.301 265.8 819.147L267.077 818.503C263.357 815.797 259.63 813.376 255.595 811.068Z" fill="white" fill-opacity="0.540975"/>
<path fill-rule="evenodd" clip-rule="evenodd" d="M210.959 802.204L211.768 816.234L201.4 816.508L203.349 802.204H210.959Z" fill="url(#paint13_linear_13_4071)"/>
<path fill-rule="evenodd" clip-rule="evenodd" d="M201.304 811.367C208.651 816.908 211.47 809.975 212.096 810.663C213.288 811.97 215.544 824.991 214.316 826.816C213.233 828.432 198.5 828.459 197.686 826.937C196.615 824.921 200.486 810.751 201.304 811.367Z" fill="#222D4E"/>
<path fill-rule="evenodd" clip-rule="evenodd" d="M204.578 815.806C204.657 815.322 205.075 814.967 205.564 814.967H207.639C208.129 814.967 208.547 815.322 208.626 815.806L209.242 819.569C209.341 820.178 208.872 820.73 208.255 820.73H204.948C204.332 820.73 203.862 820.178 203.962 819.569L204.578 815.806Z" fill="white" fill-opacity="0.540975"/>
<path fill-rule="evenodd" clip-rule="evenodd" d="M220.591 610C220.591 610 210.266 619.305 207.556 632.673C203.037 654.957 205.311 696.115 205.177 705.14C205.05 714.165 201.804 719.611 200.064 732.372C198.323 745.132 200.045 802.162 200.045 802.162C204.66 804.947 209.665 805.146 215.167 801.995L247.485 612.977L220.591 610Z" fill="#38308B"/>
<path fill-rule="evenodd" clip-rule="evenodd" d="M213.713 618.305L217.746 618.86C214.203 625.639 212.412 641.097 212.375 665.235L212.375 666C212.375 702.496 205.787 715.353 203.136 731.064L203.057 731.541C201.469 741.284 200.28 756.898 199.489 778.38L199.409 773.054C199.189 756.824 199.184 738.821 200.064 732.372C201.804 719.611 205.05 714.166 205.177 705.14L205.183 704.243C205.181 693.663 203.172 654.289 207.556 632.673C208.7 627.027 211.203 622.106 213.713 618.305Z" fill="white" fill-opacity="0.0771689"/>
<path fill-rule="evenodd" clip-rule="evenodd" d="M209.5 547.703C209.5 547.703 219.388 580.837 219.681 587.109C219.973 593.381 211.593 611.816 213.02 616.475C216.31 627.243 258.309 631.879 262.814 617.395C264.739 611.209 261.038 604.576 262.833 596.617C264.621 588.657 269.875 576.828 265.799 565.708C261.722 554.587 262.814 544.299 259.898 542.354C256.982 540.409 250.166 538.344 250.166 538.344C246.852 543.226 235.662 543.155 230.322 538C230.322 538 217.058 540.575 209.5 547.703Z" fill="#7367F0"/>
<path fill-rule="evenodd" clip-rule="evenodd" d="M218.36 553.069C224.951 563.537 224.931 581.762 228.471 584.149C232.011 586.536 245.788 584.193 245.788 586.084C245.788 587.974 226.749 605.297 229.874 613.578C231.511 617.914 231.067 621.793 228.543 625.215L227.719 625.036C220.217 623.339 214.186 620.293 213.02 616.475C211.593 611.816 219.973 593.381 219.68 587.109C219.432 581.802 212.315 557.264 210.131 549.838C212.061 546.345 214.804 547.422 218.36 553.069Z" fill="black" fill-opacity="0.0564904"/>
<path fill-rule="evenodd" clip-rule="evenodd" d="M239.216 607.039C239.216 607.039 245.65 604.187 247.732 604.195C249.815 604.203 251.408 604.271 251.408 604.271L251.414 607.155C251.414 607.155 261.986 608.116 263.101 608.078C264.223 608.041 259.023 615.862 255.522 617.278C251.654 618.842 238.51 614.203 238.51 614.203L239.216 607.039Z" fill="url(#paint14_linear_13_4071)"/>
<path fill-rule="evenodd" clip-rule="evenodd" d="M210.065 546.761C201.958 552.675 181.265 603.417 191.094 610.534C199.473 616.602 235.071 617.394 237.705 615.458C239.899 613.841 241.132 608.922 239.068 606.235C236.329 602.652 205.441 597.477 205.441 597.477C205.441 597.477 216.547 570.908 218.865 566.251C226.816 550.266 221.548 538.386 210.065 546.761Z" fill="#7367F0"/>
<path fill-rule="evenodd" clip-rule="evenodd" d="M205.484 597.445C205.484 597.445 201.949 602.983 202.677 603.121C203.405 603.259 208.149 597.95 208.149 597.95L205.484 597.445Z" fill="black" fill-opacity="0.302803"/>
</g>
<defs>
<filter id="filter0_f_13_4071" x="318.872" y="247.624" width="137.151" height="136.904" filterUnits="userSpaceOnUse" color-interpolation-filters="sRGB">
<feFlood flood-opacity="0" result="BackgroundImageFix"/>
<feBlend mode="normal" in="SourceGraphic" in2="BackgroundImageFix" result="shape"/>
<feGaussianBlur stdDeviation="4.07742" result="effect1_foregroundBlur_13_4071"/>
</filter>
<filter id="filter1_dd_13_4071" x="199.5" y="544" width="206.869" height="108.289" filterUnits="userSpaceOnUse" color-interpolation-filters="sRGB">
<feFlood flood-opacity="0" result="BackgroundImageFix"/>
<feColorMatrix in="SourceAlpha" type="matrix" values="0 0 0 0 0 0 0 0 0 0 0 0 0 0 0 0 0 0 127 0" result="hardAlpha"/>
<feOffset dx="7" dy="8"/>
<feGaussianBlur stdDeviation="12.5"/>
<feColorMatrix type="matrix" values="0 0 0 0 0.0755213 0 0 0 0 0.582569 0 0 0 0 0.878793 0 0 0 0.229458 0"/>
<feBlend mode="normal" in2="BackgroundImageFix" result="effect1_dropShadow_13_4071"/>
<feColorMatrix in="SourceAlpha" type="matrix" values="0 0 0 0 0 0 0 0 0 0 0 0 0 0 0 0 0 0 127 0" result="hardAlpha"/>
<feOffset dy="2"/>
<feGaussianBlur stdDeviation="7"/>
<feColorMatrix type="matrix" values="0 0 0 0 0.503982 0 0 0 0 0.700178 0 0 0 0 1 0 0 0 0.233829 0"/>
<feBlend mode="normal" in2="effect1_dropShadow_13_4071" result="effect2_dropShadow_13_4071"/>
<feBlend mode="normal" in="SourceGraphic" in2="effect2_dropShadow_13_4071" result="shape"/>
</filter>
<filter id="filter2_dd_13_4071" x="197.5" y="391" width="212.477" height="188.215" filterUnits="userSpaceOnUse" color-interpolation-filters="sRGB">
<feFlood flood-opacity="0" result="BackgroundImageFix"/>
<feColorMatrix in="SourceAlpha" type="matrix" values="0 0 0 0 0 0 0 0 0 0 0 0 0 0 0 0 0 0 127 0" result="hardAlpha"/>
<feOffset dx="8" dy="9"/>
<feGaussianBlur stdDeviation="14"/>
<feColorMatrix type="matrix" values="0 0 0 0 0.0755213 0 0 0 0 0.582569 0 0 0 0 0.878793 0 0 0 0.229458 0"/>
<feBlend mode="normal" in2="BackgroundImageFix" result="effect1_dropShadow_13_4071"/>
<feColorMatrix in="SourceAlpha" type="matrix" values="0 0 0 0 0 0 0 0 0 0 0 0 0 0 0 0 0 0 127 0" result="hardAlpha"/>
<feOffset dy="2"/>
<feGaussianBlur stdDeviation="7.5"/>
<feColorMatrix type="matrix" values="0 0 0 0 0.503982 0 0 0 0 0.700178 0 0 0 0 1 0 0 0 0.233829 0"/>
<feBlend mode="normal" in2="effect1_dropShadow_13_4071" result="effect2_dropShadow_13_4071"/>
<feBlend mode="normal" in="SourceGraphic" in2="effect2_dropShadow_13_4071" result="shape"/>
</filter>
<filter id="filter3_d_13_4071" x="230.113" y="450.414" width="134.391" height="75.0731" filterUnits="userSpaceOnUse" color-interpolation-filters="sRGB">
<feFlood flood-opacity="0" result="BackgroundImageFix"/>
<feColorMatrix in="SourceAlpha" type="matrix" values="0 0 0 0 0 0 0 0 0 0 0 0 0 0 0 0 0 0 127 0" result="hardAlpha"/>
<feOffset dy="6"/>
<feGaussianBlur stdDeviation="3.5"/>
<feColorMatrix type="matrix" values="0 0 0 0 0 0 0 0 0 0 0 0 0 0 0 0 0 0 0.144395 0"/>
<feBlend mode="normal" in2="BackgroundImageFix" result="effect1_dropShadow_13_4071"/>
<feBlend mode="normal" in="SourceGraphic" in2="effect1_dropShadow_13_4071" result="shape"/>
</filter>
<linearGradient id="paint0_linear_13_4071" x1="187.49" y1="404.402" x2="187.49" y2="826.951" gradientUnits="userSpaceOnUse">
<stop stop-color="#A2FFEA"/>
<stop offset="1" stop-color="#8CA5FF"/>
</linearGradient>
<linearGradient id="paint1_linear_13_4071" x1="512.227" y1="773.858" x2="510.631" y2="803.708" gradientUnits="userSpaceOnUse">
<stop stop-color="#FDC6C6"/>
<stop offset="1" stop-color="#FAB2B2"/>
</linearGradient>
<linearGradient id="paint2_linear_13_4071" x1="507.593" y1="601.529" x2="503.353" y2="662.079" gradientUnits="userSpaceOnUse">
<stop stop-color="#FDC6C6"/>
<stop offset="1" stop-color="#FAB2B2"/>
</linearGradient>
<linearGradient id="paint3_linear_13_4071" x1="561.943" y1="577.528" x2="550.718" y2="627.065" gradientUnits="userSpaceOnUse">
<stop stop-color="#FFAFAF"/>
<stop offset="1" stop-color="#F07777"/>
</linearGradient>
<linearGradient id="paint4_linear_13_4071" x1="561.185" y1="568.112" x2="554.525" y2="600.709" gradientUnits="userSpaceOnUse">
<stop stop-color="#FDC6C6"/>
<stop offset="1" stop-color="#FAB2B2"/>
</linearGradient>
<linearGradient id="paint5_linear_13_4071" x1="476.95" y1="775.061" x2="475.389" y2="808.334" gradientUnits="userSpaceOnUse">
<stop stop-color="#FDC6C6"/>
<stop offset="1" stop-color="#FAB2B2"/>
</linearGradient>
<linearGradient id="paint6_linear_13_4071" x1="586.878" y1="634.401" x2="585.371" y2="673.785" gradientUnits="userSpaceOnUse">
<stop stop-color="#FDC6C6"/>
<stop offset="1" stop-color="#FAB2B2"/>
</linearGradient>
<linearGradient id="paint7_linear_13_4071" x1="382.739" y1="655.373" x2="361.713" y2="655.373" gradientUnits="userSpaceOnUse">
<stop stop-color="#F16B79"/>
<stop offset="1" stop-color="#F69D88"/>
</linearGradient>
<linearGradient id="paint8_linear_13_4071" x1="700.58" y1="577.59" x2="700.58" y2="628.354" gradientUnits="userSpaceOnUse">
<stop stop-color="#9FF6EC"/>
<stop offset="1" stop-color="#7D9DFF"/>
</linearGradient>
<linearGradient id="paint9_linear_13_4071" x1="219.891" y1="512.408" x2="230.403" y2="559.669" gradientUnits="userSpaceOnUse">
<stop stop-color="#FFAFAF"/>
<stop offset="1" stop-color="#F07777"/>
</linearGradient>
<linearGradient id="paint10_linear_13_4071" x1="220.719" y1="503.44" x2="227.026" y2="534.5" gradientUnits="userSpaceOnUse">
<stop stop-color="#FDC6C6"/>
<stop offset="1" stop-color="#FAB2B2"/>
</linearGradient>
<linearGradient id="paint11_linear_13_4071" x1="298.593" y1="517.663" x2="309.866" y2="547.016" gradientUnits="userSpaceOnUse">
<stop stop-color="#FDC6C6"/>
<stop offset="1" stop-color="#FAB2B2"/>
</linearGradient>
<linearGradient id="paint12_linear_13_4071" x1="240.644" y1="796.829" x2="242.06" y2="815.083" gradientUnits="userSpaceOnUse">
<stop stop-color="#FDC6C6"/>
<stop offset="1" stop-color="#FAB2B2"/>
</linearGradient>
<linearGradient id="paint13_linear_13_4071" x1="199.606" y1="798.722" x2="201.118" y2="815.714" gradientUnits="userSpaceOnUse">
<stop stop-color="#FDC6C6"/>
<stop offset="1" stop-color="#FAB2B2"/>
</linearGradient>
<linearGradient id="paint14_linear_13_4071" x1="232.947" y1="604.043" x2="234.704" y2="619.045" gradientUnits="userSpaceOnUse">
<stop stop-color="#FDC6C6"/>
<stop offset="1" stop-color="#FAB2B2"/>
</linearGradient>
<clipPath id="clip0_13_4071">
<rect width="956" height="1080" fill="white"/>
</clipPath>
</defs>
</svg>
