<svg width="956" height="1080" viewBox="0 0 956 1080" fill="none" xmlns="http://www.w3.org/2000/svg">
<g clip-path="url(#clip0_6_347)">
<rect width="956" height="1080" fill="#F8F8F8"/>
<path opacity="0.0845424" d="M787.32 437.249C796.698 424.73 814.453 422.18 826.979 431.552C839.379 440.83 842.005 458.315 832.957 470.81L832.679 471.187L758.379 570.373C748.916 583.007 731.34 586.21 718.04 577.802L717.639 577.544L670.865 546.948L623.705 615.593C614.937 628.356 597.564 631.693 584.702 623.17L584.313 622.908C571.543 614.146 568.204 596.783 576.732 583.928L576.994 583.539L638.793 493.586C647.999 480.185 666.141 476.492 679.841 485.144L680.255 485.41L727.898 516.574L787.32 437.249Z" fill="#7367F0"/>
<path opacity="0.0845424" d="M544.118 276.294C546.496 272.84 551.232 271.961 554.696 274.332C558.115 276.671 559.018 281.301 556.756 284.742L556.664 284.879L538.148 311.779C535.433 315.57 530.181 316.483 526.345 313.861L526.208 313.765L515.574 306.195L504.048 324.454C501.839 327.954 497.234 329.037 493.696 326.919L493.557 326.833C490.047 324.631 488.96 320.039 491.085 316.511L491.17 316.372L506.455 292.158C508.973 288.169 514.257 286.971 518.258 289.481L518.467 289.617L518.673 289.758L529.53 297.488L544.118 276.294Z" fill="#7367F0"/>
<path opacity="0.070266" fill-rule="evenodd" clip-rule="evenodd" d="M746.402 402.308C747.782 402.308 748.902 401.189 748.902 399.808V381.831H766.891C768.271 381.831 769.391 380.711 769.391 379.331V370.676C769.391 369.295 768.271 368.176 766.891 368.176H748.902V350.066C748.902 348.686 747.782 347.566 746.402 347.566H737.606C736.226 347.566 735.106 348.686 735.106 350.066V368.176H717.117C715.736 368.176 714.617 369.295 714.617 370.676V379.331C714.617 380.711 715.736 381.831 717.117 381.831H735.106V399.808C735.106 401.189 736.226 402.308 737.606 402.308H746.402Z" fill="#00CFE8"/>
<path opacity="0.0739397" fill-rule="evenodd" clip-rule="evenodd" d="M205.602 293C256.193 293 297.206 333.989 297.206 384.551C297.206 435.113 256.193 476.101 205.602 476.101C155.011 476.101 113.998 435.113 113.998 384.551C113.998 333.989 155.011 293 205.602 293ZM205.602 338.303C180.046 338.303 159.328 359.009 159.328 384.551C159.328 410.092 180.046 430.798 205.602 430.798C231.159 430.798 251.876 410.092 251.876 384.551C251.876 359.009 231.159 338.303 205.602 338.303Z" fill="#00CFE8"/>
<path fill-rule="evenodd" clip-rule="evenodd" d="M174.596 374C174.596 365.163 181.759 358 190.596 358H660.724C669.561 358 676.724 365.163 676.724 374V578.224C676.724 587.061 669.561 594.224 660.724 594.224H190.596C181.759 594.224 174.596 587.061 174.596 578.224V374Z" fill="#E7FCFF"/>
<path opacity="0.383371" fill-rule="evenodd" clip-rule="evenodd" d="M182.146 374C182.146 365.163 189.31 358 198.146 358H660.724C669.561 358 676.724 365.163 676.724 374V578.224C676.724 587.061 669.561 594.224 660.724 594.224H198.147C189.31 594.224 182.146 587.061 182.146 578.224V374Z" fill="#00CFE8"/>
<path fill-rule="evenodd" clip-rule="evenodd" d="M189.697 375.559C189.697 370.036 194.174 365.559 199.697 365.559H659.173C664.696 365.559 669.173 370.036 669.173 375.559V576.665C669.173 582.188 664.696 586.665 659.173 586.665H199.697C194.174 586.665 189.697 582.188 189.697 576.665L189.697 375.559Z" fill="#E7FCFF"/>
<path fill-rule="evenodd" clip-rule="evenodd" d="M388.85 572.822C388.85 569.509 391.536 566.822 394.85 566.822H464.021C467.334 566.822 470.021 569.509 470.021 572.822V586.665H388.85V572.822Z" fill="#D4EFFF"/>
<path d="M396.4 572.822C396.4 569.509 399.087 566.822 402.4 566.822H471.572C474.885 566.822 477.572 569.509 477.572 572.822V594.224H396.4V572.822Z" fill="#91D6FF"/>
<g filter="url(#filter0_dd_6_347)">
<path fill-rule="evenodd" clip-rule="evenodd" d="M203.855 380.397C203.855 377.421 206.268 375.008 209.244 375.008H334.268C337.244 375.008 339.657 377.421 339.657 380.397V421.047C339.657 424.023 337.244 426.436 334.268 426.436H209.244C206.268 426.436 203.855 424.023 203.855 421.047V380.397Z" fill="white"/>
</g>
<path opacity="0.454078" fill-rule="evenodd" clip-rule="evenodd" d="M244.037 405.559C244.037 404.716 244.721 404.032 245.565 404.032H270.992C271.836 404.032 272.52 404.716 272.52 405.559C272.52 406.403 271.836 407.087 270.992 407.087H245.565C244.721 407.087 244.037 406.403 244.037 405.559Z" fill="#C7C1FF"/>
<path fill-rule="evenodd" clip-rule="evenodd" d="M244.037 396.903C244.037 396.059 244.721 395.376 245.565 395.376H260.82C261.663 395.376 262.347 396.059 262.347 396.903C262.347 397.747 261.663 398.431 260.82 398.431H245.565C244.721 398.431 244.037 397.747 244.037 396.903Z" fill="#8478FF"/>
<path fill-rule="evenodd" clip-rule="evenodd" d="M318.813 393.284C320.983 390.429 325.053 389.876 327.904 392.049C328.56 392.548 329.115 393.169 329.539 393.876C329.758 394.241 329.639 394.714 329.275 394.933C328.911 395.151 328.439 395.033 328.22 394.668C327.897 394.128 327.473 393.655 326.973 393.274C324.842 391.651 321.819 392.022 320.14 394.085L320.037 394.216L317.652 397.353C313.927 402.254 307.624 404.414 301.693 402.848L301.439 402.779L299.521 402.237C299.397 402.202 299.273 402.171 299.147 402.143C295.639 401.369 292.168 403.541 291.309 407.011L291.269 407.182L290.873 408.98C290.733 409.617 290.462 410.217 290.076 410.741C288.551 412.817 285.633 413.262 283.559 411.735C283.217 411.483 283.144 411.001 283.396 410.659C283.647 410.316 284.129 410.243 284.471 410.495C285.86 411.518 287.815 411.22 288.837 409.829C289.063 409.521 289.231 409.175 289.332 408.808L289.371 408.649L289.767 406.851C290.735 402.451 295.083 399.67 299.478 400.639L299.709 400.694L299.938 400.755L301.857 401.297C307.172 402.799 312.857 400.946 316.272 396.622L316.428 396.421L318.813 393.284Z" fill="#8478FF"/>
<path fill-rule="evenodd" clip-rule="evenodd" d="M311.882 392.353C313.452 388.857 317.557 387.297 321.049 388.869C321.751 389.184 322.395 389.615 322.956 390.143C324.275 391.384 325.497 393.347 326.642 396.035C326.808 396.426 326.627 396.878 326.236 397.045C325.845 397.212 325.394 397.03 325.227 396.639C324.158 394.13 323.043 392.338 321.902 391.264C321.466 390.854 320.965 390.519 320.419 390.273C317.75 389.072 314.623 390.22 313.353 392.838L313.285 392.985L312.79 394.086C312.675 394.343 312.542 394.591 312.394 394.83C310.566 397.766 306.707 398.664 303.774 396.834C303.425 396.616 303.042 396.458 302.641 396.366C300.689 395.919 298.745 397.102 298.23 399.022L298.197 399.157L297.341 402.899C297.083 404.026 296.535 405.067 295.753 405.917C293.312 408.571 289.214 408.785 286.513 406.434L286.369 406.305L282.883 403.092C282.57 402.804 282.55 402.317 282.838 402.004C283.107 401.712 283.548 401.675 283.86 401.906L283.925 401.959L287.411 405.173C289.484 407.084 292.713 406.95 294.621 404.875C295.176 404.271 295.577 403.543 295.792 402.754L295.841 402.555L296.697 398.813C297.344 395.985 300.159 394.217 302.984 394.865C303.481 394.979 303.958 395.165 304.4 395.416L304.588 395.527C306.8 396.907 309.71 396.23 311.088 394.016C311.163 393.896 311.232 393.772 311.296 393.646L311.387 393.455L311.882 392.353Z" fill="#C7C1FF"/>
<ellipse cx="226.489" cy="401.231" rx="10.4267" ry="10.4383" fill="#8478FF"/>
<g filter="url(#filter1_dd_6_347)">
<path fill-rule="evenodd" clip-rule="evenodd" d="M203.855 438.592C203.855 435.83 206.094 433.592 208.855 433.592H367.805C370.566 433.592 372.805 435.83 372.805 438.592V571.271C372.805 574.033 370.566 576.271 367.805 576.271H208.855C206.094 576.271 203.855 574.033 203.855 571.271V438.592Z" fill="white"/>
</g>
<mask id="mask0_6_347" style="mask-type:luminance" maskUnits="userSpaceOnUse" x="203" y="433" width="170" height="144">
<path fill-rule="evenodd" clip-rule="evenodd" d="M203.855 438.592C203.855 435.83 206.094 433.592 208.855 433.592H367.805C370.566 433.592 372.805 435.83 372.805 438.592V571.271C372.805 574.033 370.566 576.271 367.805 576.271H208.855C206.094 576.271 203.855 574.033 203.855 571.271V438.592Z" fill="white"/>
</mask>
<g mask="url(#mask0_6_347)">
<g filter="url(#filter2_d_6_347)">
<path d="M226.508 543.2C226.508 543.2 246.593 537.425 255.449 525.639C264.305 513.853 267.291 502.428 282.522 502.428C297.754 502.428 299.706 519.926 316.172 519.926C332.638 519.926 333.538 497.612 339.011 488.752C344.483 479.892 353.928 479.892 353.928 479.892" stroke="#8EEAF6" stroke-width="4.004" stroke-linecap="round"/>
</g>
<path opacity="0.414737" fill-rule="evenodd" clip-rule="evenodd" d="M226.508 541.982C226.508 541.982 246.593 536.232 255.449 524.497C264.305 512.761 267.291 501.386 282.522 501.386C297.754 501.386 299.706 518.808 316.172 518.808C332.638 518.808 333.538 496.591 339.011 487.769C344.483 478.947 353.928 478.947 353.928 478.947V553.349C353.928 555.05 352.549 556.429 350.848 556.429H229.588C227.887 556.429 226.508 555.05 226.508 553.349V541.982Z" fill="#CEF9FF"/>
<rect x="217.07" y="447.765" width="52.8556" height="5.66939" rx="2.83469" fill="#8EEAF6"/>
<path fill-rule="evenodd" clip-rule="evenodd" d="M217.07 464.773C217.07 463.208 218.339 461.939 219.905 461.939H238.776C240.341 461.939 241.61 463.208 241.61 464.773C241.61 466.339 240.341 467.608 238.776 467.608H219.905C218.339 467.608 217.07 466.339 217.07 464.773Z" fill="#8EEAF6" fill-opacity="0.401934"/>
<ellipse cx="340.241" cy="451.072" rx="3.30348" ry="3.30714" fill="#8EEAF6" fill-opacity="0.451705"/>
<ellipse cx="349.68" cy="451.072" rx="3.30348" ry="3.30714" fill="#8EEAF6" fill-opacity="0.451705"/>
<ellipse cx="359.118" cy="451.072" rx="3.30348" ry="3.30714" fill="#8EEAF6" fill-opacity="0.451705"/>
</g>
<g filter="url(#filter3_d_6_347)">
<path fill-rule="evenodd" clip-rule="evenodd" d="M399.232 395.721C399.232 391.588 402.583 388.237 406.717 388.237H631.929C636.063 388.237 639.414 391.588 639.414 395.721V546.237C639.414 550.371 636.063 553.721 631.929 553.721H406.717C402.583 553.721 399.232 550.371 399.232 546.237V395.721Z" fill="white"/>
</g>
<path fill-rule="evenodd" clip-rule="evenodd" d="M439.852 473.101V532.287H431.021V473.101H439.852Z" fill="#E7E4FF"/>
<path fill-rule="evenodd" clip-rule="evenodd" d="M439.852 487.245V532.287H431.021V487.245H439.852Z" fill="#C7C1FF"/>
<path fill-rule="evenodd" clip-rule="evenodd" d="M439.852 515.533V532.287H431.021V515.533H439.852Z" fill="#8478FF"/>
<path fill-rule="evenodd" clip-rule="evenodd" d="M461.043 458.957V532.287H452.213V458.957H461.043Z" fill="#E7E4FF"/>
<path fill-rule="evenodd" clip-rule="evenodd" d="M461.043 480.173V532.287H452.213V480.173H461.043Z" fill="#C7C1FF"/>
<path fill-rule="evenodd" clip-rule="evenodd" d="M461.043 515.533V532.287H452.213V515.533H461.043Z" fill="#8478FF"/>
<path fill-rule="evenodd" clip-rule="evenodd" d="M482.236 469.565V532.287H473.406V469.565H482.236Z" fill="#E7E4FF"/>
<path fill-rule="evenodd" clip-rule="evenodd" d="M482.236 490.781V532.287H473.406V490.781H482.236Z" fill="#C7C1FF"/>
<path fill-rule="evenodd" clip-rule="evenodd" d="M482.236 519.069V532.287H473.406V519.069H482.236Z" fill="#8478FF"/>
<path fill-rule="evenodd" clip-rule="evenodd" d="M503.428 451.885V532.287H494.598V451.885H503.428Z" fill="#E7E4FF"/>
<path fill-rule="evenodd" clip-rule="evenodd" d="M503.428 473.101V532.287H494.598V473.101H503.428Z" fill="#C7C1FF"/>
<path fill-rule="evenodd" clip-rule="evenodd" d="M503.428 501.389V532.287H494.598V501.389H503.428Z" fill="#8478FF"/>
<path fill-rule="evenodd" clip-rule="evenodd" d="M524.621 437.741V532.287H515.791V437.741H524.621Z" fill="#E7E4FF"/>
<path fill-rule="evenodd" clip-rule="evenodd" d="M524.621 466.029V532.287H515.791V466.029H524.621Z" fill="#C7C1FF"/>
<path fill-rule="evenodd" clip-rule="evenodd" d="M524.621 508.461V532.287H515.791V508.461H524.621Z" fill="#8478FF"/>
<path fill-rule="evenodd" clip-rule="evenodd" d="M545.815 458.957V532.287H536.984V458.957H545.815Z" fill="#E7E4FF"/>
<path fill-rule="evenodd" clip-rule="evenodd" d="M545.815 480.173V532.287H536.984V480.173H545.815Z" fill="#C7C1FF"/>
<path fill-rule="evenodd" clip-rule="evenodd" d="M545.815 512.704V532.287H536.984V512.704H545.815Z" fill="#8478FF"/>
<path fill-rule="evenodd" clip-rule="evenodd" d="M567.006 466.029V532.287H558.176V466.029H567.006Z" fill="#E7E4FF"/>
<path fill-rule="evenodd" clip-rule="evenodd" d="M567.006 480.173V532.287H558.176V480.173H567.006Z" fill="#C7C1FF"/>
<path fill-rule="evenodd" clip-rule="evenodd" d="M567.006 507.753V532.287H558.176V507.753H567.006Z" fill="#8478FF"/>
<path fill-rule="evenodd" clip-rule="evenodd" d="M588.199 451.885V532.287H579.369V451.885H588.199Z" fill="#E7E4FF"/>
<path fill-rule="evenodd" clip-rule="evenodd" d="M588.199 480.173V532.287H579.369V480.173H588.199Z" fill="#C7C1FF"/>
<path fill-rule="evenodd" clip-rule="evenodd" d="M588.199 514.825V532.287H579.369V514.825H588.199Z" fill="#8478FF"/>
<path fill-rule="evenodd" clip-rule="evenodd" d="M609.391 466.029V532.287H600.561V466.029H609.391Z" fill="#E7E4FF"/>
<path fill-rule="evenodd" clip-rule="evenodd" d="M609.391 480.173V532.287H600.561V480.173H609.391Z" fill="#C7C1FF"/>
<path fill-rule="evenodd" clip-rule="evenodd" d="M609.391 514.825V532.287H600.561V514.825H609.391Z" fill="#8478FF"/>
<path opacity="0.57573" fill-rule="evenodd" clip-rule="evenodd" d="M428.195 418.646C428.195 417.475 429.145 416.525 430.317 416.525H500.954C502.125 416.525 503.075 417.475 503.075 418.646C503.075 419.818 502.125 420.768 500.954 420.768H430.317C429.145 420.768 428.195 419.818 428.195 418.646Z" fill="#8C81FF"/>
<rect x="428.195" y="404.502" width="39.5593" height="4.2432" rx="2.1216" fill="#8478FF"/>
<path fill-rule="evenodd" clip-rule="evenodd" d="M672.038 722.882L683.48 813.29L677.481 813.21L666.038 723.728L672.038 722.882Z" fill="#BFE7FF"/>
<path fill-rule="evenodd" clip-rule="evenodd" d="M594.615 737.093C589.399 737.093 585.17 732.864 585.17 727.648C585.17 722.431 589.399 718.203 594.615 718.203H632.377C638.099 718.203 642.881 713.849 643.417 708.153L649.455 643.96C649.99 638.264 654.772 633.91 660.494 633.91H684.194C690.653 633.91 695.744 639.408 695.249 645.848L689.025 726.855C688.581 732.632 683.764 737.093 677.97 737.093H594.615Z" fill="#91D6FF"/>
<path fill-rule="evenodd" clip-rule="evenodd" d="M585.172 727.567C585.224 727.568 585.276 727.569 585.328 727.569H668.458C674.251 727.569 679.068 723.109 679.513 717.332L685.733 636.614C685.801 635.734 685.764 634.872 685.634 634.038C685.082 633.954 684.517 633.91 683.94 633.91H660.352C654.631 633.91 649.85 638.262 649.313 643.957L643.28 707.916C642.742 713.611 637.961 717.963 632.241 717.963H594.591C589.388 717.963 585.17 722.181 585.17 727.384C585.17 727.445 585.171 727.506 585.172 727.567Z" fill="#BFE7FF"/>
<path fill-rule="evenodd" clip-rule="evenodd" d="M659.274 618.34C671.472 615.498 672.275 598.746 663.001 592.935C672.565 572.875 650.448 552.958 635.298 565.241C625.366 560.987 617.113 577.586 626.354 590.478C622.479 612.613 630.366 618.335 644.582 618.578L659.274 618.34Z" fill="#422851"/>
<path fill-rule="evenodd" clip-rule="evenodd" d="M659.121 614.339C659.121 614.339 653.187 612.946 652.981 603.217C652.776 593.489 652.92 590.169 652.92 590.169L639.85 589.933C639.85 589.933 639.707 600.775 639.705 604.696C639.7 615.229 632.365 614.339 632.365 614.339C632.365 614.339 633.889 622.88 645.733 623.546C654.98 624.067 659.121 614.339 659.121 614.339Z" fill="url(#paint0_linear_6_347)"/>
<path fill-rule="evenodd" clip-rule="evenodd" d="M655.968 585.311C661.799 585.085 660.848 593.625 654.791 593.614C654.791 593.614 651.273 605.746 639.059 605.746C629.139 605.746 628.494 591.606 628.404 588.785C628.307 585.777 628.295 575.896 628.295 575.896L656.195 575.883L655.968 585.311Z" fill="url(#paint1_linear_6_347)"/>
<path d="M641.414 597.596C641.414 597.596 638.505 600.06 635.135 597.752" stroke="#F77B7B" stroke-width="1.5" stroke-linecap="round"/>
<path d="M639.492 600.45C638.587 600.868 637.715 600.898 636.937 600.482" stroke="#F49494" stroke-linecap="round"/>
<path d="M655.373 589.904C655.313 588.534 655.73 587.446 657.127 587.227" stroke="#F77B7B" stroke-linecap="round"/>
<path fill-rule="evenodd" clip-rule="evenodd" d="M656.89 584.256C656.89 584.256 653.694 588.546 653.047 588.569C652.4 588.592 652.173 582.989 652.173 582.989C648.252 582.689 638.331 580.712 635.899 576.107C634.198 580.171 630.947 581.975 628.81 581.629L628.405 590.262L627.408 572.906H657.672L656.89 584.256Z" fill="#422851"/>
<path fill-rule="evenodd" clip-rule="evenodd" d="M599.402 785.891C599.402 785.891 604.633 796.462 600.345 799.793C596.05 803.125 584.706 809.368 584.706 809.368L614.76 807.478L608.079 784.424L599.402 785.891Z" fill="url(#paint2_linear_6_347)"/>
<path fill-rule="evenodd" clip-rule="evenodd" d="M611.854 795.951C610.371 796.125 611.955 801.121 608.744 801.501C605.539 801.88 603.981 797.147 600.345 798.647C596.708 800.148 583.444 807.906 582.922 811.078C582.393 814.249 587.335 815.182 594.112 814.466C600.889 813.75 602.138 811.337 607.226 812.309C612.307 813.28 616.113 811.732 615.946 808.017C615.778 804.303 613.337 795.778 611.854 795.951Z" fill="#222D4E"/>
<path fill-rule="evenodd" clip-rule="evenodd" d="M598.685 799.417L599.345 800.407C599.669 800.893 599.51 801.551 599.001 801.835L590.035 806.841C589.744 807.003 589.392 807.01 589.095 806.86L587.703 806.153C589.889 804.569 591.676 803.379 593.652 802.21C595.168 801.313 596.847 800.388 598.685 799.417Z" fill="white" fill-opacity="0.540975"/>
<path fill-rule="evenodd" clip-rule="evenodd" d="M644.675 692.725C635.576 693.131 584.937 704.338 575.736 706.242C566.536 708.146 558.757 718.448 565.773 730.377C573.653 743.769 593.984 781.8 598.921 790.373C601.364 794.616 613.69 792.237 610.794 785.115C605.397 771.838 602.891 738.485 589.13 726.324C589.13 726.324 635.407 734.382 655.396 725.152C669.924 718.442 666.638 691.742 644.675 692.725Z" fill="url(#paint3_linear_6_347)"/>
<path fill-rule="evenodd" clip-rule="evenodd" d="M580.208 638.893C580.208 638.893 580.311 631.486 577.722 627.615C575.132 623.744 575.029 619.632 573.069 619.766C571.109 619.901 573.05 629.459 573.05 629.459C573.05 629.459 570.563 628.508 568.777 627.306C566.99 626.103 561.573 620.176 560.308 621.226C558.161 623.016 561.618 633.111 563.501 635.13C565.39 637.148 575.71 643.787 575.71 643.787L580.208 638.893Z" fill="url(#paint4_linear_6_347)"/>
<path fill-rule="evenodd" clip-rule="evenodd" d="M636.122 634.454C631.889 644.276 624.14 662.32 620.945 667.703C616.941 674.444 610.628 677.414 603.236 672.413C595.468 667.157 574.081 646.657 573.454 642.014C572.832 637.37 578.067 631.799 582.804 634.683C587.54 637.568 607.222 653.956 607.222 653.956C607.222 653.956 615.165 633.583 621.555 621.782C627.088 611.572 642.564 619.523 636.122 634.454Z" fill="#6A5EE3"/>
<path fill-rule="evenodd" clip-rule="evenodd" d="M607.141 653.966C607.141 653.966 605.007 661.206 604.509 660.787C604.01 660.368 604.89 652.074 604.89 652.074L607.141 653.966Z" fill="black" fill-opacity="0.302803"/>
<path fill-rule="evenodd" clip-rule="evenodd" d="M678.42 622.62C678.42 622.62 668.221 656.791 667.918 663.259C667.616 669.728 676.26 688.74 674.789 693.545C671.395 704.65 628.072 709.431 626.417 694.493C625.645 687.526 627.251 681.273 625.4 673.064C623.556 664.855 616.142 652.657 620.347 641.188C624.552 629.719 623.425 619.109 626.433 617.103C629.441 615.098 636.472 612.968 636.472 612.968C639.891 618.002 651.434 617.929 656.941 612.613C656.941 612.613 670.624 615.269 678.42 622.62Z" fill="#7367F0"/>
<path fill-rule="evenodd" clip-rule="evenodd" d="M669.28 628.154C662.481 638.949 662.501 657.745 658.85 660.206C655.199 662.668 640.987 660.252 640.987 662.202C640.987 664.151 660.626 682.016 657.402 690.557C655.714 695.029 656.172 699.029 658.776 702.559L659.626 702.373C667.364 700.624 673.585 697.482 674.788 693.545C676.26 688.74 666.619 669.728 666.921 663.259C667.177 657.768 675.284 632.316 677.729 624.748C675.738 621.234 672.922 622.37 669.28 628.154Z" fill="black" fill-opacity="0.199355"/>
<path fill-rule="evenodd" clip-rule="evenodd" d="M657.688 656.794C657.688 656.794 649.097 649.187 646.467 648.304C643.837 647.421 628.434 646.36 628.532 648.355C628.642 650.493 636.915 650.37 637.772 651.421C638.629 652.472 638.824 659.659 642.064 660.465C645.298 661.272 654.993 662.663 654.993 662.663L657.688 656.794Z" fill="url(#paint5_linear_6_347)"/>
<path fill-rule="evenodd" clip-rule="evenodd" d="M680.542 624.583C689.593 637.364 697.32 656.833 700.287 664.423C703.253 672.013 700.261 683.462 687.218 681.214C674.198 678.973 653.482 666.792 651.19 663.239C648.898 659.686 652.38 653.221 656.765 654.067C660.828 654.85 680.978 663.423 680.978 663.423C680.978 663.423 668.015 640.432 664.849 634.269C659.561 623.976 672.569 613.322 680.542 624.583Z" fill="#6A5EE3"/>
<path fill-rule="evenodd" clip-rule="evenodd" d="M680.772 663.265C680.772 663.265 687.562 666.641 686.734 665.225C685.906 663.81 678.181 658.837 678.181 658.837L680.772 663.265Z" fill="black" fill-opacity="0.302803"/>
<path fill-rule="evenodd" clip-rule="evenodd" d="M348.062 782.194C348.062 782.194 347.926 790.906 353.272 794C358.618 797.095 366.901 802.844 366.901 802.844L335.393 803.913L336.291 782.116L348.062 782.194Z" fill="#F8CFCF"/>
<path fill-rule="evenodd" clip-rule="evenodd" d="M334.292 791.794L333.779 805.926H341.098L341.599 804.105C341.599 804.105 344.355 803.992 345.947 804.779C347.63 805.61 347.856 806.014 347.856 806.014L371.07 806.063C371.07 806.063 372.215 801.495 365.139 798.191C358.063 794.887 352.91 790.197 351.932 789.717C350.946 789.233 348.957 788.96 347.556 790.096C346.156 791.232 345.048 794.219 341.874 794.312C337.789 794.433 335.442 789.404 334.292 791.794Z" fill="#4B4B4B"/>
<path d="M354.131 791.25L351.725 793.577" stroke="white" stroke-width="2" stroke-linecap="round"/>
<path d="M357.639 793.014L355.232 795.342" stroke="white" stroke-width="2" stroke-linecap="round"/>
<path d="M361.149 794.779L358.742 797.107" stroke="white" stroke-width="2" stroke-linecap="round"/>
<path fill-rule="evenodd" clip-rule="evenodd" d="M325 594C325 594 333.753 690.38 334.026 697.079C334.298 703.779 331.214 715.342 331.274 727.874C331.334 740.406 332.4 784.575 332.4 784.575L351.71 784.984C351.71 784.984 359.825 705.167 359.913 693.198C360 681.229 360.744 595.152 360.744 595.152L325 594Z" fill="#383838"/>
<path opacity="0.283552" fill-rule="evenodd" clip-rule="evenodd" d="M338.919 700.079L338.94 700.318C339.231 704.404 336.693 717.846 331.327 740.645L331.274 727.874C331.215 715.565 334.189 704.192 334.037 697.443L334.026 697.079C333.934 694.822 332.879 682.379 331.521 666.872L332.155 669.143C335.878 682.595 338.132 692.908 338.919 700.079Z" fill="white" fill-opacity="0.192499"/>
<path fill-rule="evenodd" clip-rule="evenodd" d="M301.478 780.966L297.754 803.525L311.482 803.456L311.916 780.613L301.478 780.966Z" fill="#F8CFCF"/>
<path fill-rule="evenodd" clip-rule="evenodd" d="M300.001 790.724C298.657 791.015 297.683 792.182 297.638 793.556L297.527 796.91C295.585 799.064 294.668 805.287 294.571 805.977C294.565 806.02 294.561 806.061 294.566 806.105C294.851 809.154 314.82 809.116 316.695 806.249C316.78 806.118 316.786 805.963 316.761 805.809C316.551 804.538 315.435 798.385 313.29 796.707L313.277 793.384C313.272 792.031 312.362 790.849 311.055 790.498L308.992 789.944C306.985 787.017 304.25 787.121 301.907 790.31L300.001 790.724Z" fill="#4B4B4B"/>
<path d="M302.686 792.748H308.243" stroke="white" stroke-width="2" stroke-linecap="round"/>
<path d="M302.686 795.393H308.243" stroke="white" stroke-width="2" stroke-linecap="round"/>
<path d="M303.57 798.037H307.36" stroke="white" stroke-width="2" stroke-linecap="round"/>
<path fill-rule="evenodd" clip-rule="evenodd" d="M308.401 595.265C308.401 595.265 302.268 661.331 302.351 673.982C302.434 686.635 304.239 692.191 301.671 701.267C299.102 710.343 296.912 782.786 296.912 782.786L315.903 784.864C315.903 784.864 328.036 707.346 329.355 696.599C330.674 685.851 346.98 594.353 346.98 594.353L308.401 595.265Z" fill="#2E2E2E"/>
<path opacity="0.283552" fill-rule="evenodd" clip-rule="evenodd" d="M313.53 640.105L312.372 644.298C308.98 656.673 305.849 669.76 306.669 688.455L306.709 689.309C306.91 693.358 304.334 716.861 298.98 759.816L298.471 762.835C297.946 765.915 297.478 768.542 297.068 770.717L297.185 766.913C297.867 745.914 299.704 708.215 301.67 701.267C304.238 692.191 302.434 686.635 302.35 673.982C302.292 665.126 305.28 630.097 307.078 609.877L308.401 595.265L316.417 595.076L316.437 597.326C316.578 618.099 315.609 632.358 313.53 640.105Z" fill="white" fill-opacity="0.192499"/>
<path fill-rule="evenodd" clip-rule="evenodd" d="M401.834 513.566C401.834 513.566 400.249 504.828 400.819 503.058C401.306 501.529 405.908 499.323 405.908 499.323C405.908 499.323 413.912 486.818 415.664 488.091C417.089 489.123 411.496 498.343 411.496 498.343C411.496 498.343 416.596 503.636 416.525 506.002C416.454 508.368 408.2 515.774 408.2 515.774L401.834 513.566Z" fill="#F8CFCF"/>
<path fill-rule="evenodd" clip-rule="evenodd" d="M406.08 499.198C406.08 499.198 409.625 498.721 410.189 499.812C410.67 500.742 407.725 503.379 407.725 504.12C407.725 504.861 407.767 510.471 408.004 510.522C408.241 510.573 411.555 501.367 410.848 499.42C410.266 497.821 406.08 499.198 406.08 499.198Z" fill="#F28585"/>
<path fill-rule="evenodd" clip-rule="evenodd" d="M359.546 524.684C350.261 516.662 336.318 531.124 351.865 544.569C357.797 549.699 376.428 562.493 380.996 565.307C388.267 569.785 394.242 565.744 396.697 558.697C398.78 552.723 411.239 520.743 409.653 516.046C408.62 512.982 403.071 510.001 400.286 512.412C396.216 515.935 383.766 546.839 383.766 546.839C383.766 546.839 370.104 533.805 359.546 524.684Z" fill="#877BFF"/>
<path fill-rule="evenodd" clip-rule="evenodd" d="M383.766 546.839C383.766 546.839 387.843 551.786 388.138 551.03C388.432 550.275 384.904 543.918 384.904 543.918L383.766 546.839Z" fill="black" fill-opacity="0.159856"/>
<path d="M399.205 514.393C402.445 512.893 405.984 514.748 407.934 517.723" stroke="#5386BF" stroke-linecap="round"/>
<path fill-rule="evenodd" clip-rule="evenodd" d="M319.742 515.431C319.742 515.431 325.08 514.203 325.266 505.628C325.451 497.053 325.321 494.126 325.321 494.126L337.977 493.918C337.977 493.918 338.104 503.474 338.107 506.931C338.111 514.457 343.812 516.49 343.812 516.49C343.812 516.49 343.339 524.718 332.684 525.306C324.365 525.765 319.742 515.431 319.742 515.431Z" fill="#F8C5C5"/>
<path fill-rule="evenodd" clip-rule="evenodd" d="M349.251 484.881L348.969 492.986C351.36 490.23 352.976 486.814 353.454 482.433L349.251 484.881Z" fill="url(#paint6_linear_6_347)"/>
<path fill-rule="evenodd" clip-rule="evenodd" d="M324.159 489.791C318.914 489.592 319.769 497.12 325.219 497.11C325.219 497.11 331.075 508.654 340.269 508.683C344.697 508.698 346.143 504.831 347.471 502.116C348.799 499.401 349.773 495.34 349.854 492.853C349.941 490.202 349.952 481.493 349.952 481.493L323.955 481.481L324.159 489.791Z" fill="#F8CFCF"/>
<path fill-rule="evenodd" clip-rule="evenodd" d="M349.952 485.489H331.669C331.477 488.728 330.379 491.417 327.593 493.401C327.672 498.146 329.291 501.6 332.099 504.023C334.543 497.155 349.496 499.034 348.408 503.515C346.123 512.929 324.708 513.142 326.007 491.476C325.153 490.334 322.098 490.12 321.092 491.262C319.374 486.529 320.107 479.832 325.075 478.864C321.175 468.777 374.197 466.643 349.952 485.489Z" fill="#424242"/>
<path d="M338.236 503.099C338.236 503.099 340.619 504.815 343.754 502.939" stroke="#CC6969" stroke-linecap="round"/>
<path d="M324.977 494.089C325.03 492.881 324.655 491.922 323.398 491.729" stroke="#DE6767" stroke-linecap="round"/>
<path fill-rule="evenodd" clip-rule="evenodd" d="M322.089 514L337.192 523.796L344.002 515.887C344.002 515.887 358.348 520.327 361.01 525.518C364.85 533.008 359.79 593.022 361.996 596.643C366.697 604.36 360.447 609.658 339.757 611.604C319.067 613.55 300.712 611.957 304.042 601.658C307.374 591.359 294.519 524.147 305.852 520.445C309.393 519.288 322.089 514 322.089 514Z" fill="#7367F0"/>
<path fill-rule="evenodd" clip-rule="evenodd" d="M311.897 532.529C312.812 534.144 312.34 539.737 310.483 549.309C308.9 557.464 310.71 565.899 315.487 572.705L315.756 573.081C317.371 575.311 318.861 578.247 320.224 581.888C323.568 590.82 315.856 598.266 321.766 612.239L321.051 612.205C309.455 611.606 301.79 608.623 304.042 601.658C306.774 593.214 298.624 546.51 301.847 527.921C307.426 529.015 310.776 530.551 311.897 532.529Z" fill="black" fill-opacity="0.159856"/>
<path fill-rule="evenodd" clip-rule="evenodd" d="M322.089 514L335.598 522.795C333.618 525.093 332.556 527.766 332.155 530.709C326.963 526.656 321.567 520.992 319.895 514.902L322.089 514Z" fill="#5E54C7"/>
<path fill-rule="evenodd" clip-rule="evenodd" d="M338.26 522.566C340.544 524.109 342.366 526.839 343.85 529.944C345.628 526.376 346.309 521.664 346.309 516.639L344.078 515.759L338.26 522.566Z" fill="#5E54C7"/>
<path fill-rule="evenodd" clip-rule="evenodd" d="M335.598 522.794L335.774 522.893C336.584 523.344 337.594 523.211 338.259 522.566C343.352 541.207 346.934 561.724 348.017 582.576L342.702 591.39L336.485 583.141C337.295 561.47 337.289 540.339 335.598 522.794Z" fill="#CBC6FF"/>
<path d="M349.081 569.99C349.228 568.598 350.503 567.607 351.888 567.81L364.194 569.609C365.502 569.8 366.427 570.99 366.288 572.304L364.08 593.318C363.933 594.711 362.658 595.701 361.273 595.499L348.967 593.7C347.659 593.509 346.735 592.319 346.873 591.004L349.081 569.99Z" fill="#6182EC"/>
<path fill-rule="evenodd" clip-rule="evenodd" d="M350.549 569.567C350.7 568.128 352.053 567.128 353.473 567.407L366.34 569.93L375.145 569.783C376.624 569.758 377.792 571.033 377.637 572.504L375.432 593.486C375.302 594.724 374.268 595.671 373.023 595.692L363.616 595.849L350.318 593.241C349.066 592.995 348.208 591.834 348.342 590.565L350.549 569.567Z" fill="#96EFFA"/>
<path d="M352.872 574.487C352.97 573.561 353.835 572.913 354.751 573.081L360.657 574.161C361.48 574.312 362.048 575.071 361.96 575.902L361.708 578.297C361.611 579.223 360.746 579.871 359.829 579.703L353.924 578.622C353.101 578.472 352.533 577.713 352.621 576.881L352.872 574.487Z" fill="#74CFDB"/>
<path d="M365.356 570.631C365.402 570.192 365.796 569.873 366.235 569.919L366.752 569.974C367.191 570.02 367.51 570.414 367.464 570.853L364.916 595.097C364.87 595.536 364.476 595.855 364.037 595.809L363.52 595.755C363.08 595.708 362.762 595.315 362.808 594.875L365.356 570.631Z" fill="#EAEFFF"/>
<path d="M366.059 570.705C366.105 570.266 366.499 569.947 366.938 569.993L367.455 570.048C367.895 570.094 368.213 570.488 368.167 570.927L365.619 595.171C365.573 595.61 365.179 595.929 364.74 595.883L364.223 595.828C363.783 595.782 363.465 595.389 363.511 594.949L366.059 570.705Z" fill="#7AD2DD"/>
<path fill-rule="evenodd" clip-rule="evenodd" d="M335.89 579.414C335.89 579.414 340.476 578.498 342.353 577.034C344.23 575.569 349.915 574.534 349.915 574.534L348.096 578.34C348.096 578.34 362.028 577.04 362.358 578.406C362.689 579.772 358.659 581.256 358.659 581.256C358.659 581.256 356.672 584.944 354.748 587.082C352.928 589.105 343.884 588.864 340.714 587.602C337.975 586.511 334.996 587.057 334.996 587.057L335.89 579.414Z" fill="#F8CFCF"/>
<path fill-rule="evenodd" clip-rule="evenodd" d="M299.002 526.239C303.984 515.542 321.042 522.749 316.743 534.209C312.579 545.31 302.49 571.23 302.49 571.23C302.49 571.23 334.462 575.263 336.954 577.144C340.28 579.653 338.224 586.813 335.398 588.088C333.007 589.166 315.245 589.796 297.866 588.435C289.269 587.762 282.911 584.092 282.024 574.559C281.402 567.883 294.202 536.544 299.002 526.239Z" fill="#877BFF"/>
<path fill-rule="evenodd" clip-rule="evenodd" d="M302.502 571.224C302.502 571.224 299.845 576.243 300.604 576.345C301.364 576.448 305.225 571.591 305.225 571.591L302.502 571.224Z" fill="black" fill-opacity="0.159856"/>
<path d="M334.703 576.599C335.689 579.727 334.996 583.395 333.628 585.988" stroke="#5386BF" stroke-linecap="round"/>
<path fill-rule="evenodd" clip-rule="evenodd" d="M199.363 716.346C207.629 712.634 217.336 716.361 220.996 724.65L223.858 731.135C215.592 734.847 205.885 731.12 202.225 722.831L199.363 716.346Z" fill="#02D3AF"/>
<path fill-rule="evenodd" clip-rule="evenodd" d="M211.173 720.302C219.423 726.172 224.772 732.714 227.237 739.926C229.714 747.173 230.729 759.321 230.268 776.347C230.261 776.611 230.467 776.83 230.729 776.837C230.99 776.844 231.208 776.637 231.215 776.373C231.679 759.241 230.656 746.996 228.132 739.614C225.597 732.197 220.121 725.5 211.719 719.521C211.505 719.369 211.21 719.421 211.059 719.636C210.909 719.852 210.96 720.15 211.173 720.302Z" fill="#02B596"/>
<path fill-rule="evenodd" clip-rule="evenodd" d="M269.488 712.32C261.354 708.494 251.659 712.022 247.886 720.182L244.673 727.133C252.807 730.959 262.502 727.431 266.275 719.271L269.488 712.32Z" fill="#02D3AF"/>
<path d="M204.496 696.385C212.34 694.718 220.05 699.725 221.718 707.569L223.067 713.919C215.223 715.586 207.513 710.579 205.846 702.735L204.496 696.385Z" fill="#02D3AF"/>
<path fill-rule="evenodd" clip-rule="evenodd" d="M210.264 701.452C216.31 705.672 220.399 710.223 222.544 715.099L222.676 715.406L222.809 715.729C225.007 721.185 228.645 735.475 233.705 758.545C233.761 758.802 234.014 758.966 234.27 758.91C234.525 758.854 234.686 758.599 234.63 758.342L234.003 755.496L233.271 752.202C228.7 731.761 225.418 719.281 223.41 714.715C221.187 709.662 216.981 704.981 210.802 700.667C210.587 700.517 210.292 700.571 210.143 700.787C209.995 701.004 210.049 701.301 210.264 701.452Z" fill="#02B596"/>
<path fill-rule="evenodd" clip-rule="evenodd" d="M257.623 691.56C248.978 691.408 241.847 698.294 241.698 706.94L241.564 714.653C250.209 714.805 257.34 707.919 257.49 699.273L257.623 691.56Z" fill="#02D3AF"/>
<path fill-rule="evenodd" clip-rule="evenodd" d="M251.951 694.662C246.39 702.822 242.326 710.699 239.763 718.293C237.203 725.874 234.65 737.581 232.1 753.424C232.058 753.684 232.233 753.93 232.491 753.972C232.75 754.014 232.993 753.837 233.035 753.577L233.348 751.651L233.563 750.353C235.93 736.186 238.296 725.6 240.659 718.601C243.193 711.095 247.217 703.295 252.731 695.203C252.879 694.985 252.825 694.688 252.609 694.539C252.394 694.389 252.099 694.444 251.951 694.662Z" fill="#02B596"/>
<path fill-rule="evenodd" clip-rule="evenodd" d="M239.905 689.316C239.905 689.316 235.395 702.164 233.401 721.089C231.408 740.013 232.571 758.938 232.571 758.938L234.772 759.138C234.772 759.138 233.59 737.05 235.009 721.172C236.429 705.294 241.005 689.416 241.005 689.416L239.905 689.316Z" fill="#02B596"/>
<ellipse cx="242.201" cy="682.952" rx="7.26372" ry="11.1372" transform="rotate(14 242.201 682.952)" fill="#C2FFF4"/>
<ellipse cx="242.347" cy="683.625" rx="5.05298" ry="7.26093" transform="rotate(14 242.347 683.625)" fill="#02D3AF"/>
<path fill-rule="evenodd" clip-rule="evenodd" d="M241.726 690.005L245.783 677.341C246.025 676.588 245.615 675.781 244.869 675.538C244.122 675.294 243.321 675.707 243.08 676.46L239.022 689.124C238.781 689.877 239.191 690.685 239.937 690.928C240.684 691.171 241.484 690.758 241.726 690.005Z" fill="url(#paint7_linear_6_347)"/>
<path fill-rule="evenodd" clip-rule="evenodd" d="M217.95 676.586C217.95 676.586 223.778 688.892 227.739 707.505C231.7 726.117 232.521 745.06 232.521 745.06L230.354 745.489C230.354 745.489 229.22 723.399 226.149 707.756C223.077 692.113 216.867 676.801 216.867 676.801L217.95 676.586Z" fill="#02B596"/>
<ellipse cx="7.26372" cy="11.1372" rx="7.26372" ry="11.1372" transform="matrix(-0.939693 0.34202 0.34202 0.939693 218.018 657.546)" fill="#C2FFF4"/>
<ellipse cx="5.05298" cy="7.26093" rx="5.05298" ry="7.26093" transform="matrix(-0.939693 0.34202 0.34202 0.939693 217.191 662.63)" fill="#02D3AF"/>
<path fill-rule="evenodd" clip-rule="evenodd" d="M216.212 677.462L210.852 665.291C210.534 664.568 210.857 663.722 211.574 663.402C212.29 663.082 213.13 663.409 213.449 664.132L218.808 676.303C219.126 677.026 218.804 677.872 218.087 678.192C217.37 678.512 216.53 678.185 216.212 677.462Z" fill="url(#paint8_linear_6_347)"/>
<path fill-rule="evenodd" clip-rule="evenodd" d="M265.02 714.348C253.792 718.742 245.964 723.819 241.537 729.599C237.111 735.378 234.186 744.341 232.744 756.49C232.713 756.752 232.898 756.99 233.157 757.021C233.417 757.053 233.653 756.866 233.684 756.604C235.108 744.611 237.982 735.803 242.287 730.183C246.591 724.563 254.282 719.575 265.362 715.239C265.606 715.143 265.727 714.867 265.632 714.621C265.538 714.375 265.264 714.253 265.02 714.348Z" fill="#02B596"/>
<path fill-rule="evenodd" clip-rule="evenodd" d="M234.93 749.595C229.599 730.598 208.547 736.157 208.547 736.157C208.547 736.157 224.308 741.308 232.346 749.595H234.93Z" fill="#02B596"/>
<path fill-rule="evenodd" clip-rule="evenodd" d="M234.875 746.677C240.206 727.68 257.975 730.458 257.975 730.458C257.975 730.458 247.183 739.329 237.458 746.677H234.875Z" fill="#02B596"/>
<path fill-rule="evenodd" clip-rule="evenodd" d="M234.837 750.453C230.071 733.599 241.188 719.092 241.188 719.092C241.188 719.092 240.625 739.052 236.761 749.222L234.837 750.453Z" fill="#02B596"/>
<path fill-rule="evenodd" clip-rule="evenodd" d="M230.174 746.677C228.067 740.587 225.971 732.082 224.4 723.837C232.163 726.959 234.657 739.397 232.163 746.677H230.174Z" fill="#02D3AF"/>
<path fill-rule="evenodd" clip-rule="evenodd" d="M215.022 742.762C214.919 741.584 215.847 740.571 217.03 740.571H247.682C248.865 740.571 249.793 741.584 249.69 742.762L243.783 810.355C243.692 811.396 242.82 812.195 241.775 812.195H222.937C221.891 812.195 221.019 811.396 220.928 810.355L215.022 742.762Z" fill="#7569EC"/>
<mask id="mask1_6_347" style="mask-type:luminance" maskUnits="userSpaceOnUse" x="215" y="740" width="35" height="73">
<path fill-rule="evenodd" clip-rule="evenodd" d="M215.022 742.762C214.919 741.584 215.847 740.571 217.03 740.571H247.682C248.865 740.571 249.793 741.584 249.69 742.762L243.783 810.355C243.692 811.396 242.82 812.195 241.775 812.195H222.937C221.891 812.195 221.019 811.396 220.928 810.355L215.022 742.762Z" fill="white"/>
</mask>
<g mask="url(#mask1_6_347)">
<path fill-rule="evenodd" clip-rule="evenodd" d="M210.408 736.099H223.353C215.331 766.552 239.478 787.488 223.353 817.941H210.408V736.099Z" fill="#8175FF"/>
</g>
<path fill-rule="evenodd" clip-rule="evenodd" d="M792.746 722.882L781.303 813.29L787.302 813.21L798.745 723.728L792.746 722.882Z" fill="#91D6FF"/>
<path fill-rule="evenodd" clip-rule="evenodd" d="M759.447 722.882L748.004 813.29L754.003 813.21L765.446 723.728L759.447 722.882Z" fill="#91D6FF"/>
<path fill-rule="evenodd" clip-rule="evenodd" d="M832.493 722.882L843.936 813.29L837.936 813.21L826.493 723.728L832.493 722.882Z" fill="#BFE7FF"/>
<path fill-rule="evenodd" clip-rule="evenodd" d="M755.07 737.093C749.854 737.093 745.625 732.864 745.625 727.648C745.625 722.431 749.854 718.203 755.07 718.203H792.833C798.554 718.203 803.336 713.849 803.872 708.153L809.91 643.96C810.445 638.264 815.227 633.91 820.949 633.91H844.649C851.108 633.91 856.199 639.408 855.705 645.848L849.48 726.855C849.036 732.632 844.219 737.093 838.425 737.093H755.07Z" fill="#91D6FF"/>
<path fill-rule="evenodd" clip-rule="evenodd" d="M745.627 727.567C745.679 727.568 745.731 727.569 745.783 727.569H828.913C834.706 727.569 839.523 723.109 839.968 717.332L846.188 636.614C846.256 635.734 846.219 634.872 846.089 634.038C845.537 633.954 844.972 633.91 844.395 633.91H820.807C815.086 633.91 810.305 638.262 809.768 643.957L803.735 707.916C803.197 713.611 798.416 717.963 792.696 717.963H755.046C749.843 717.963 745.625 722.181 745.625 727.384C745.625 727.445 745.626 727.506 745.627 727.567Z" fill="#BFE7FF"/>
<path fill-rule="evenodd" clip-rule="evenodd" d="M757.11 784.415C757.11 784.415 762.356 795.01 758.055 798.349C753.748 801.688 742.372 807.946 742.372 807.946L772.512 806.052L765.812 782.944L757.11 784.415Z" fill="url(#paint9_linear_6_347)"/>
<path fill-rule="evenodd" clip-rule="evenodd" d="M769.525 794.003C768.576 794.455 770.136 798.712 766.799 798.413C763.463 798.115 761.368 793.714 758.908 794C756.447 794.285 754.885 798.717 750.2 801.803C745.517 804.89 738.572 808.572 739.037 811.675C739.502 814.779 750.431 815.61 755.968 814.582C761.505 813.556 764.089 811.33 767.681 811.507C771.273 811.685 773.531 811.245 774.657 808.939C775.782 806.632 770.619 793.48 769.525 794.003Z" fill="#EEDFE8"/>
<path fill-rule="evenodd" clip-rule="evenodd" d="M769.258 808.167L768.951 808.149C764.499 807.774 761.445 810.574 757.208 811.363C752.97 812.153 741.795 812.426 740.01 809.775C739.925 809.65 739.847 809.521 739.774 809.391C739.174 810.128 738.892 810.917 739.037 811.836C739.502 814.789 750.432 815.58 755.969 814.603C761.506 813.626 764.091 811.507 767.683 811.676L768.322 811.7C771.545 811.788 773.601 811.294 774.66 809.232C774.917 808.729 774.859 807.649 774.601 806.283C773.098 807.311 771.202 808.226 769.258 808.167Z" fill="#EC7AA5"/>
<path fill-rule="evenodd" clip-rule="evenodd" d="M802.511 691.032C793.387 691.439 742.601 702.672 733.375 704.58C724.148 706.488 716.347 716.814 723.383 728.772C731.285 742.194 751.675 780.314 756.626 788.907C759.076 793.16 771.437 790.775 768.534 783.636C763.121 770.329 760.607 736.898 746.807 724.709C746.807 724.709 793.217 732.786 813.264 723.534C827.833 716.808 824.537 690.047 802.511 691.032Z" fill="#413C75"/>
<path fill-rule="evenodd" clip-rule="evenodd" d="M738.857 634.074C738.857 634.074 738.961 628.65 736.364 624.77C733.766 620.89 733.663 616.768 731.698 616.903C729.732 617.038 731.679 626.618 731.679 626.618C731.679 626.618 729.185 625.665 727.393 624.46C725.602 623.255 720.169 617.314 718.899 618.367C716.747 620.16 720.214 630.279 722.102 632.302C723.997 634.326 733.346 639.98 733.346 639.98L760.881 667.719L764.998 652.993L738.857 634.074Z" fill="url(#paint10_linear_6_347)"/>
<path fill-rule="evenodd" clip-rule="evenodd" d="M793.932 631.625C789.687 641.47 781.915 659.556 778.711 664.951C774.696 671.708 768.365 674.685 760.951 669.672C759.4 668.623 754.946 664.954 754.946 664.954C755.605 658.532 758.004 653.164 762.14 648.849L764.949 651.172C764.949 651.172 772.915 630.752 779.323 618.923C784.872 608.689 800.393 616.659 793.932 631.625Z" fill="#EA5455"/>
<path fill-rule="evenodd" clip-rule="evenodd" d="M764.867 651.183C764.867 651.183 762.728 658.44 762.228 658.019C761.727 657.599 762.61 649.286 762.61 649.286L764.867 651.183Z" fill="black" fill-opacity="0.159856"/>
<path fill-rule="evenodd" clip-rule="evenodd" d="M812.278 593.411V602.123L818.675 596.972C818.675 596.972 820.642 588.626 822.241 582.427C823.244 578.539 825.687 565.384 815.851 566C807.793 551.796 784.327 560.587 784.14 577.94C783.916 598.811 784.099 606.937 784.099 606.937C797.369 607.698 804.837 605.78 812.278 593.411Z" fill="#422851"/>
<path fill-rule="evenodd" clip-rule="evenodd" d="M818.814 609.997C818.814 609.997 812.864 608.6 812.657 598.85C812.451 589.099 812.596 585.77 812.596 585.77L799.488 585.534C799.488 585.534 799.345 596.401 799.343 600.332C799.337 609.889 792.309 610.672 792.309 610.672C792.309 610.672 793.51 618.558 805.388 619.225C814.661 619.748 818.814 609.997 818.814 609.997Z" fill="url(#paint11_linear_6_347)"/>
<path fill-rule="evenodd" clip-rule="evenodd" d="M815.65 580.901C821.498 580.675 820.544 589.235 814.47 589.224C814.47 589.224 810.942 601.384 798.692 601.384C788.744 601.384 788.097 587.211 788.007 584.384C787.91 581.369 787.898 571.465 787.898 571.465L815.878 571.452L815.65 580.901Z" fill="url(#paint12_linear_6_347)"/>
<path fill-rule="evenodd" clip-rule="evenodd" d="M816.103 580.845C813.68 581.245 813.974 582.849 813.315 582.709C809.969 581.997 796.425 582.936 794.681 575.488C792.511 580.141 791.98 581.285 787.202 582.534V568.899L817.424 566C817.424 566 816.955 580.704 816.103 580.845Z" fill="#422851"/>
<path d="M801.055 593.215C801.055 593.215 798.137 595.685 794.758 593.372" stroke="#F77B7B" stroke-width="1.5" stroke-linecap="round"/>
<path d="M799.129 596.076C798.221 596.494 797.347 596.525 796.567 596.107" stroke="#F49494" stroke-linecap="round"/>
<path d="M815.055 585.505C814.995 584.132 815.414 583.041 816.814 582.822" stroke="#F77B7B" stroke-linecap="round"/>
<path fill-rule="evenodd" clip-rule="evenodd" d="M817.484 609C810.016 613.574 801.382 615.251 793.345 610.284C780.23 636.145 776.961 667.002 780.116 701.106C799.241 708.678 815.315 707.189 829 698.534L817.484 609Z" fill="#FFE4F4"/>
<path fill-rule="evenodd" clip-rule="evenodd" d="M724.415 784.84C724.415 784.84 724.573 797.311 714.297 801.974C704.028 806.635 696.711 806.355 697.643 809.959C698.574 813.563 725.304 813.418 727.8 810.599C729.928 808.201 734.554 785.872 735.828 787.579L724.415 784.84Z" fill="url(#paint13_linear_6_347)"/>
<path fill-rule="evenodd" clip-rule="evenodd" d="M731.879 802.452C730.304 801.319 728.98 807.853 724.703 806.036C720.425 804.219 723.798 798.213 721.106 797.105C718.414 795.998 713.216 801.953 706.312 803.401C699.408 804.848 693.803 806.114 692.21 808.801C690.838 811.111 692.21 811.849 692.21 811.849C692.21 811.849 698.856 815.168 702.986 815.899C708.986 816.96 726.325 817.667 728.225 815.732C729.392 814.545 732.667 803.019 731.879 802.452Z" fill="#EEDFE8"/>
<path fill-rule="evenodd" clip-rule="evenodd" d="M691.835 809.073C690.533 811.196 692.587 812.3 692.833 812.422L693.824 812.844C695.704 813.626 699.946 815.302 703.081 815.901C708.829 817 726.628 817.651 728.543 815.762C728.879 815.43 729.295 814.217 729.697 812.641L728.476 812.774C722.598 813.397 709.477 814.524 703.002 812.998C697.254 811.644 694.108 809.417 692.673 808.117C692.324 808.416 692.042 808.734 691.835 809.073Z" fill="#EC7AA5"/>
<path fill-rule="evenodd" clip-rule="evenodd" d="M831.102 687.177C831.102 687.177 844.368 715.192 825.725 724.812C807.696 734.115 753.724 723.112 753.724 723.112C753.724 723.112 754.689 730.877 753.724 737.802C751.206 755.889 739.226 786.023 736.692 789.809C733.187 795.046 722.51 791.097 722.309 786.737C722.107 782.377 730.357 726.693 731.612 716.075C732.86 705.456 736.8 703.913 748.309 701.01C750.953 700.343 782.22 692.573 785.084 692.8C809.695 694.746 831.102 687.177 831.102 687.177Z" fill="#524D87"/>
<path fill-rule="evenodd" clip-rule="evenodd" d="M816.56 721.921C798.711 723.921 751.456 719.798 749.558 721.671C747.746 723.46 748.049 754.575 743.984 772.585L744.602 770.884C748.425 760.267 752.394 747.354 753.724 737.802C754.689 730.877 753.724 723.112 753.724 723.112L755.901 723.533C766.16 725.46 809.86 732.999 825.725 724.812C834.322 720.376 837.83 713.006 836.249 702.703C833.527 714.349 826.964 720.755 816.56 721.921Z" fill="white" fill-opacity="0.056108"/>
<path fill-rule="evenodd" clip-rule="evenodd" d="M817.157 609.021C804.788 649.537 797.371 706.979 835.999 696.986C815.48 659.206 843.375 642.202 837.052 622.676C834.89 616 817.318 608.497 817.157 609.021Z" fill="#EA5455"/>
<path fill-rule="evenodd" clip-rule="evenodd" d="M831.107 625.846C817.128 627.955 828.652 652.362 824.037 656.039C819.423 659.716 811.391 660.113 810.525 662.359C808.785 666.874 817.199 678.271 835.767 696.551L836 696.986C818.125 664.076 836.988 646.931 837.969 630.151C835.898 626.903 833.61 625.468 831.107 625.846Z" fill="black" fill-opacity="0.159856"/>
<path fill-rule="evenodd" clip-rule="evenodd" d="M794 610C789.28 621.838 787.011 631.127 784.894 648.503C783.129 662.975 784.013 692.84 784.013 692.84L778.18 693.987C778.18 693.987 774.01 647.848 775.404 641.907C777.744 631.938 779.329 626.113 782.418 617C784.12 611.998 794 610 794 610Z" fill="#EA5455"/>
<path fill-rule="evenodd" clip-rule="evenodd" d="M814.56 655.017C814.56 655.017 806.944 647.392 804.307 646.507C801.669 645.622 787.222 644.559 787.32 646.559C787.431 648.701 796.727 648.578 797.587 649.632C798.446 650.685 799.642 658.888 802.891 659.697C806.134 660.506 812.857 662.9 812.857 662.9L842.781 678.362L839.593 662.901L814.56 655.017Z" fill="url(#paint14_linear_6_347)"/>
<path fill-rule="evenodd" clip-rule="evenodd" d="M837.48 622.731C846.557 635.542 854.307 655.056 857.282 662.664C860.256 670.272 857.256 681.747 844.175 679.494C842.618 679.226 840.084 678.24 840.084 678.24C835.275 671.647 834.431 665.987 836.226 660.947L837.918 661.661C837.918 661.661 824.917 638.617 821.742 632.439C816.44 622.122 829.485 611.444 837.48 622.731Z" fill="#EA5455"/>
<path fill-rule="evenodd" clip-rule="evenodd" d="M837.917 661.661C837.917 661.661 844.521 664.887 843.69 663.468C842.86 662.049 835.402 657.182 835.402 657.182L837.917 661.661Z" fill="black" fill-opacity="0.159856"/>
<path fill-rule="evenodd" clip-rule="evenodd" d="M699.967 619.044C699.638 617.724 700.441 616.387 701.762 616.058L725.231 610.206C726.552 609.877 727.889 610.68 728.218 612.001L736.74 646.181C737.069 647.501 736.266 648.838 734.946 649.168L711.476 655.019C710.156 655.348 708.818 654.545 708.489 653.225L699.967 619.044Z" fill="url(#paint15_linear_6_347)"/>
<path fill-rule="evenodd" clip-rule="evenodd" d="M700.883 619.595C700.554 618.275 701.358 616.938 702.678 616.608L726.147 610.757C727.468 610.428 728.805 611.231 729.134 612.552L737.656 646.732C737.985 648.052 737.182 649.389 735.862 649.718L712.392 655.57C711.072 655.899 709.734 655.096 709.405 653.775L700.883 619.595Z" fill="#518DF8"/>
<path d="M701.884 619.896C701.588 618.708 702.311 617.504 703.499 617.208L725.571 611.705C726.76 611.408 727.963 612.131 728.26 613.32L735.965 644.223C736.261 645.411 735.538 646.615 734.349 646.911L712.277 652.414C711.089 652.71 709.885 651.987 709.589 650.799L701.884 619.896Z" fill="white"/>
<path fill-rule="evenodd" clip-rule="evenodd" d="M497.203 668.871H508.62V813.751H497.203L497.203 668.871Z" fill="#E9E9E9"/>
<path fill-rule="evenodd" clip-rule="evenodd" d="M385.375 673.634H475.564V700.542H400.403V813.751H385.375V673.634Z" fill="#D3D3D3"/>
<path fill-rule="evenodd" clip-rule="evenodd" d="M384.791 673.634H392.791V813.751H384.791V673.634Z" fill="#DBDBDB"/>
<path fill-rule="evenodd" clip-rule="evenodd" d="M777.43 673.634H793.43V813.751H777.43V673.634Z" fill="#E9E9E9"/>
<path fill-rule="evenodd" clip-rule="evenodd" d="M777.43 668.871H787.43V813.751H777.43L777.43 668.871Z" fill="#DBDBDB"/>
<path fill-rule="evenodd" clip-rule="evenodd" d="M645.006 673.634H784.006V700.19H663.713V813.751H645.006V673.634Z" fill="#D3D3D3"/>
<path fill-rule="evenodd" clip-rule="evenodd" d="M396.59 668.871L645.479 668.871V709.101H396.59V668.871Z" fill="#DBDBDB"/>
<path fill-rule="evenodd" clip-rule="evenodd" d="M639.771 673.634H651.188V709.101H639.771V673.634Z" fill="#E9E9E9"/>
<path fill-rule="evenodd" clip-rule="evenodd" d="M645.041 673.634H654.041V813.751H645.041V673.634Z" fill="#DBDBDB"/>
<path fill-rule="evenodd" clip-rule="evenodd" d="M646.477 676.015C646.477 672.07 649.675 668.871 653.62 668.871L798.746 668.871C802.691 668.871 805.889 672.07 805.889 676.015C805.889 679.96 802.691 683.158 798.746 683.158H653.62C649.675 683.158 646.477 679.96 646.477 676.015Z" fill="#E9E9E9"/>
<path fill-rule="evenodd" clip-rule="evenodd" d="M393.736 671.729H642.626V686.016H393.736V671.729Z" fill="#E9E9E9"/>
<path fill-rule="evenodd" clip-rule="evenodd" d="M372.805 676.015C372.805 672.07 376.003 668.871 379.948 668.871H656.412C660.358 668.871 663.556 672.07 663.556 676.015C663.556 679.96 660.358 683.158 656.412 683.158H379.948C376.003 683.158 372.805 679.96 372.805 676.015Z" fill="#DBDBDB"/>
<path fill-rule="evenodd" clip-rule="evenodd" d="M417.386 778.181L409.488 803.824L426.055 804.425C426.055 804.425 424.184 795.653 426.855 787.43C428.998 780.829 430.746 777.535 430.746 777.535L417.386 778.181Z" fill="#92691F"/>
<path fill-rule="evenodd" clip-rule="evenodd" d="M425.622 797.378C425.622 797.378 431.945 803.238 438.026 805.409C444.107 807.58 446.435 807.604 446.868 808.421L446.947 808.577C448.198 811.159 447.439 814.589 433.578 814.779C430.209 814.825 426.706 812.868 417.408 810.797L416.736 814.417C411.532 814.348 408.496 813.528 407.627 811.956C406.317 809.605 408.543 798.011 410.079 797.791C411.614 797.571 411.918 802.287 416.041 802.39C420.17 802.493 425.622 797.378 425.622 797.378Z" fill="#391B0B"/>
<path fill-rule="evenodd" clip-rule="evenodd" d="M437.88 805.356C437.692 805.519 437.466 805.691 437.2 805.854C436.275 806.421 434.883 806.872 433.01 806.445C432.059 806.227 430.998 805.619 429.957 804.852C428.91 804.082 427.86 803.137 426.928 802.221C425.994 801.305 425.175 800.416 424.589 799.755C424.296 799.425 424.061 799.152 423.899 798.961C423.874 798.931 423.85 798.903 423.828 798.877C423.966 798.771 424.097 798.668 424.222 798.568C424.24 798.59 424.26 798.613 424.281 798.638C424.44 798.826 424.673 799.096 424.963 799.424C425.544 800.078 426.355 800.959 427.278 801.865C428.201 802.771 429.232 803.699 430.253 804.449C431.279 805.204 432.272 805.763 433.122 805.957C434.852 806.352 436.112 805.935 436.938 805.428C437.087 805.337 437.221 805.243 437.342 805.15C437.522 805.222 437.701 805.291 437.88 805.356Z" fill="#81411E"/>
<path fill-rule="evenodd" clip-rule="evenodd" d="M379.629 697.913C379.629 697.913 445.422 703.174 454.487 703.455C463.552 703.735 470.478 716.674 463.458 728.617C455.574 742.024 434.153 780.621 429.965 789.545C426.423 797.09 410.325 793.998 413.222 782.473C416.681 768.679 423.126 737.733 436.895 725.558C436.895 725.558 403.408 737.699 384.546 725.924C373.785 719.207 379.629 697.913 379.629 697.913Z" fill="#7A3636"/>
<path fill-rule="evenodd" clip-rule="evenodd" d="M463.458 728.617L462.432 730.376C458.442 737.272 451.999 748.923 445.848 760.27L446.171 759.231C450.929 744.092 458.32 726.258 461.48 720.817C462.588 718.91 464.096 716.966 466.004 714.985C466.814 719.14 466.199 723.954 463.458 728.617Z" fill="white" fill-opacity="0.192499"/>
<path fill-rule="evenodd" clip-rule="evenodd" d="M488.987 778.48C488.987 778.48 493.385 798.038 499.11 800.131C501.314 800.937 482.218 803.238 482.218 803.238L477.424 784.474L488.987 778.48Z" fill="#92691F"/>
<path fill-rule="evenodd" clip-rule="evenodd" d="M479.46 796.631L479.141 813.142L485.723 813.192L485.79 809.48C485.79 809.48 490.92 812.556 494.394 813.638C499.066 815.097 517.525 814.333 519.61 812.11C521.696 809.877 521.741 806.324 517.459 805.887C513.178 805.451 506.098 804.151 503.05 801.818C499.363 799.007 497.96 794.547 496.889 794.543C495.25 794.537 495.123 799.784 486.804 799.858C483.637 799.886 479.46 796.631 479.46 796.631Z" fill="#391B0B"/>
<path fill-rule="evenodd" clip-rule="evenodd" d="M495.186 796.015C495.186 796.015 499.431 802.639 501.954 803.598C504.478 804.547 506.512 803.482 506.512 803.482C506.512 803.482 502.16 801.748 500.479 798.722C496.672 791.867 495.91 795.354 495.186 796.015Z" fill="#81411E"/>
<path fill-rule="evenodd" clip-rule="evenodd" d="M385.075 703.228C385.075 703.228 384.983 724.248 399.106 729.532C413.23 734.815 459.22 732.827 459.22 732.827C459.22 732.827 473.814 786.525 477.311 791.755C480.808 796.986 497.39 797.527 496.493 785.481C495.59 773.435 489.119 728.713 487.867 718.107C486.622 707.5 482.69 704.96 471.208 703.06C467.172 702.392 468.885 701.322 442.941 700.107C437.369 699.846 428.02 701.932 419.429 702.877C410.837 703.822 385.075 703.228 385.075 703.228Z" fill="#7A3636"/>
<path fill-rule="evenodd" clip-rule="evenodd" d="M430.977 703.681L430.977 701.24L432.127 701.068C436.309 700.447 440.111 699.975 442.94 700.107L445.923 700.252C468.756 701.407 467.333 702.419 471.207 703.06L471.953 703.186C482.616 705.033 486.474 707.614 487.78 717.419L488.146 720.37C489.874 733.962 495.644 774.158 496.493 785.481C496.56 786.387 496.529 787.222 496.411 787.99L493.05 771.062C488.096 745.966 485.32 731.096 484.722 726.452L484.597 725.487C483.478 717.244 480.55 707.016 471.101 707.683L470.285 707.752C463.632 708.258 451.016 706.982 432.436 703.923L430.977 703.681Z" fill="white" fill-opacity="0.192499"/>
<ellipse cx="498.32" cy="719.912" rx="3.77561" ry="6.61391" transform="rotate(13 498.32 719.912)" fill="white" fill-opacity="0.192499"/>
<path fill-rule="evenodd" clip-rule="evenodd" d="M395.263 675.315C395.263 675.315 410.654 678.878 410.498 680.277C410.345 681.682 403.569 681.898 403.569 681.898C403.569 681.898 416.095 689.987 415.098 691.565C414.101 693.143 405.934 694.921 402.545 693.648C399.154 692.375 390.367 683.113 390.367 683.113L395.263 675.315Z" fill="url(#paint16_linear_6_347)"/>
<path fill-rule="evenodd" clip-rule="evenodd" d="M395.402 629.716C390.247 636.079 372.669 655.513 372.669 655.513C372.669 655.513 390.247 668.033 394.673 670.681C401.931 675.021 394.55 686.537 389.227 685.258C382.014 683.52 363.806 670.959 355.25 665.875C346.695 660.792 349.968 652.585 356.298 645.095C361.161 639.343 371.731 627.557 379.168 617.211C386.568 606.917 405.406 617.37 395.402 629.716Z" fill="#EA5455"/>
<path fill-rule="evenodd" clip-rule="evenodd" d="M372.67 655.513C372.67 655.513 367.721 660.281 368.235 660.65C368.75 661.019 374.713 656.979 374.713 656.979L372.67 655.513Z" fill="black" fill-opacity="0.159856"/>
<path fill-rule="evenodd" clip-rule="evenodd" d="M426.093 583.007C430.416 583.481 430.109 591.089 424.847 591.486C423.771 598.821 419.936 602.315 415.259 602.719L415.518 613.813L394.833 613.801C394.833 613.801 400.658 605.964 400.368 595.235C400.077 584.506 400.562 574.427 400.562 574.427L427.355 574.908L426.093 583.007Z" fill="url(#paint17_linear_6_347)"/>
<path fill-rule="evenodd" clip-rule="evenodd" d="M417.63 562.313C433.567 566.336 426.992 583.328 426.992 583.328C422.177 582.671 417.543 588.514 415.786 594.244C410.705 599.467 404.124 599.458 399.748 596.416C399.748 596.416 393.727 577.793 395.696 571.592C397.666 565.391 403.104 558.647 417.63 562.313Z" fill="#2C272E"/>
<path fill-rule="evenodd" clip-rule="evenodd" d="M379.957 616.288C378.526 618.724 377.501 628.536 379.957 667.408C381.229 687.537 375.819 707.376 377.217 716.109C378.615 724.843 388.223 725.886 388.223 725.886L393.826 707.657L396.462 725.886C396.462 725.886 436.196 722.171 439.678 713.125C443.167 704.06 438.785 682.75 437.743 662.683C436.697 642.537 437.482 621.858 435.556 618.724C431.713 612.468 421.821 609.546 415.682 608.61C407.891 607.422 397.833 607.377 391.854 609.273C385.875 611.168 381.388 613.852 379.957 616.288Z" fill="#EA5455"/>
<path fill-rule="evenodd" clip-rule="evenodd" d="M420.387 630.131C423.523 653.265 427.716 669.498 432.966 678.83C435.137 682.688 437.342 684.279 439.582 683.602L439.05 678.475C438.52 673.287 438.017 667.942 437.744 662.683C437.553 659.016 437.424 655.331 437.327 651.737L420.387 630.131Z" fill="black" fill-opacity="0.159856"/>
<path fill-rule="evenodd" clip-rule="evenodd" d="M391.854 609.273C391.492 609.388 391.141 609.507 390.802 609.631C399.387 613.374 413.562 612.874 421.268 609.825C419.26 609.258 417.335 608.862 415.682 608.61C407.891 607.422 397.834 607.377 391.854 609.273Z" fill="#E5AA41"/>
<path fill-rule="evenodd" clip-rule="evenodd" d="M497.153 650.168C497.153 650.168 509.938 641.633 512.197 639.919C514.449 638.212 517.276 625.268 515.524 623.452C514.678 622.573 508.282 628.486 507.141 629.278C506.007 630.062 500.208 633.556 500.208 633.556C500.208 633.556 501.849 623.648 500.436 622.849C499.391 622.268 497.3 624.818 497.021 627.513C496.741 630.208 493.834 633.723 493.459 637.813C493.289 639.599 491.53 643.013 491.53 643.013L497.153 650.168Z" fill="url(#paint18_linear_6_347)"/>
<path fill-rule="evenodd" clip-rule="evenodd" d="M421.013 633.801C425.912 643.981 434.232 658.863 438.802 667.589C444.21 677.915 450.654 682.29 463.651 674.628C474.536 668.211 490.232 657.89 498.342 652.281C505.889 647.061 496.968 634.175 489.838 638.529C480.38 644.297 456.192 655.728 456.192 655.728C456.192 655.728 443.745 632.991 438.577 622.075C432.003 608.201 411.532 614.101 421.013 633.801Z" fill="#EA5455"/>
<path fill-rule="evenodd" clip-rule="evenodd" d="M456.193 655.728C456.193 655.728 458.469 663.744 459.006 663.427C459.543 663.111 458.629 654.579 458.629 654.579L456.193 655.728Z" fill="black" fill-opacity="0.159856"/>
<path fill-rule="evenodd" clip-rule="evenodd" d="M405.767 734.221L394.324 815.179L400.324 815.1L411.767 735.067L405.767 734.221Z" fill="#BFE7FF"/>
<path fill-rule="evenodd" clip-rule="evenodd" d="M443.928 734.221L455.371 815.179L449.372 815.1L437.929 735.067L443.928 734.221Z" fill="#91D6FF"/>
<path fill-rule="evenodd" clip-rule="evenodd" d="M370.882 734.221L359.439 815.179L365.439 815.1L376.882 735.067L370.882 734.221Z" fill="#BFE7FF"/>
<path fill-rule="evenodd" clip-rule="evenodd" d="M448.305 738.983C453.521 738.983 457.75 734.754 457.75 729.538C457.75 724.321 453.521 720.092 448.305 720.092H410.542C404.821 720.092 400.039 715.739 399.503 710.043L393.465 645.85C392.93 640.153 388.148 635.8 382.426 635.8H358.726C352.267 635.8 347.176 641.298 347.67 647.737L353.895 728.744C354.339 734.522 359.156 738.983 364.95 738.983H448.305Z" fill="#BFE7FF"/>
<path fill-rule="evenodd" clip-rule="evenodd" d="M457.748 729.457C457.696 729.458 457.644 729.458 457.592 729.458H405.609C399.816 729.458 394.999 724.998 394.554 719.222L388.246 637.363C391.19 639.121 393.264 642.21 393.607 645.847L399.64 709.806C400.178 715.501 404.959 719.853 410.679 719.853H448.329C453.532 719.853 457.75 724.071 457.75 729.274C457.75 729.335 457.749 729.396 457.748 729.457Z" fill="#91D6FF"/>
<path fill-rule="evenodd" clip-rule="evenodd" d="M671.98 667.543C671.98 667.13 671.646 666.796 671.234 666.796H587.098C586.685 666.796 586.351 667.13 586.351 667.543V668.64C586.351 669.052 586.685 669.386 587.098 669.386H671.234C671.646 669.386 671.98 669.052 671.98 668.64V667.543Z" fill="url(#paint19_linear_6_347)"/>
<path fill-rule="evenodd" clip-rule="evenodd" d="M671.988 667.543C671.988 667.13 671.654 666.796 671.242 666.796H638.915C638.503 666.796 638.168 667.13 638.168 667.543V668.64C638.168 669.052 638.503 669.386 638.915 669.386H671.242C671.654 669.386 671.988 669.052 671.988 668.64V667.543Z" fill="#518DF8"/>
<path fill-rule="evenodd" clip-rule="evenodd" d="M678.092 631.353C678.367 629.201 676.691 627.296 674.521 627.296H618.71C616.898 627.296 615.369 628.642 615.139 630.439L610.988 662.852C610.712 665.004 612.389 666.909 614.559 666.909H670.37C672.181 666.909 673.711 665.563 673.941 663.766L678.092 631.353Z" fill="#518DF8"/>
<path fill-rule="evenodd" clip-rule="evenodd" d="M676.393 631.353C676.668 629.201 674.991 627.296 672.822 627.296H618.19C616.379 627.296 614.849 628.642 614.619 630.439L610.468 662.852C610.193 665.004 611.869 666.909 614.039 666.909H668.671C670.482 666.909 672.011 665.563 672.242 663.766L676.393 631.353Z" fill="url(#paint20_linear_6_347)"/>
<path d="M674.443 632.821C674.691 630.884 673.182 629.17 671.229 629.17H619.471C617.84 629.17 616.464 630.381 616.257 631.999L612.517 661.236C612.269 663.173 613.778 664.887 615.731 664.887H667.489C669.12 664.887 670.496 663.675 670.703 662.058L674.443 632.821Z" fill="white"/>
<path fill-rule="evenodd" clip-rule="evenodd" d="M537.644 677.22C537.644 677.22 551.245 680.393 551.107 681.638C550.972 682.89 544.984 683.082 544.984 683.082C544.984 683.082 556.053 690.285 555.172 691.69C554.291 693.095 547.074 694.678 544.079 693.545C541.082 692.412 533.317 684.164 533.317 684.164L511.53 672.463L518.812 662.858L537.644 677.22Z" fill="url(#paint21_linear_6_347)"/>
<path fill-rule="evenodd" clip-rule="evenodd" d="M537.766 636.617C533.21 642.282 517.677 659.588 517.677 659.588L520.743 661.889L510.771 673.985C510.771 673.985 504.403 670.083 502.284 668.815C494.723 664.288 497.616 656.98 503.21 650.311C507.507 645.189 516.848 634.695 523.42 625.482C529.96 616.316 546.607 625.624 537.766 636.617Z" fill="#FFB66F"/>
<path fill-rule="evenodd" clip-rule="evenodd" d="M517.677 659.588C517.677 659.588 513.304 663.833 513.758 664.162C514.213 664.491 519.482 660.893 519.482 660.893L517.677 659.588Z" fill="black" fill-opacity="0.159856"/>
<path fill-rule="evenodd" clip-rule="evenodd" d="M520.125 660.623L507.127 673.491L513.626 677.744L522.555 662.459L520.125 660.623Z" fill="#FFEDC2"/>
<path fill-rule="evenodd" clip-rule="evenodd" d="M561.635 776.233L554.604 798.882L566.422 799.413C566.422 799.413 564.756 791.665 567.134 784.403C569.041 778.572 570.598 775.663 570.598 775.663L561.635 776.233Z" fill="url(#paint22_linear_6_347)"/>
<path fill-rule="evenodd" clip-rule="evenodd" d="M566.518 792.78C566.518 792.78 566.271 798.547 568.285 800.369C570.298 802.19 580.978 808.917 581.873 810.272C582.768 811.628 581.455 813.283 581.455 813.283C581.455 813.283 570.551 814.993 565.407 812.354C561.694 810.448 559.041 808.891 559.041 808.891L557.901 811.82L551.947 810.965C551.947 810.965 550.112 806.316 550.9 804.004C551.689 801.692 555.758 790.889 555.758 790.889C555.758 790.889 566.518 792.78 566.518 792.78Z" fill="#391B0B"/>
<path fill-rule="evenodd" clip-rule="evenodd" d="M527.247 699.031C536.136 699.898 579.92 710.326 588.935 712.178C597.95 714.03 605.572 724.051 598.698 735.654C590.976 748.679 569.149 789.158 569.149 789.158C569.014 789.191 568.882 789.249 568.746 789.249C564.306 789.249 560.348 788.641 556.537 785.985C556.537 785.985 562.328 743.54 575.811 731.712C575.811 731.712 540.993 744.231 523.581 730.571C513.309 722.513 517.451 698.075 527.247 699.031Z" fill="#33373E"/>
<path fill-rule="evenodd" clip-rule="evenodd" d="M595.573 715.255L593.182 745.278C593.379 744.928 593.573 744.582 593.766 744.24L596.044 715.636C595.889 715.506 595.732 715.379 595.573 715.255Z" fill="white" fill-opacity="0.192499"/>
<path fill-rule="evenodd" clip-rule="evenodd" d="M627.095 774.444C627.095 774.444 630.972 791.714 636.017 793.562C637.96 794.273 624.031 796.305 624.031 796.305L619.806 779.737L627.095 774.444Z" fill="url(#paint23_linear_6_347)"/>
<path fill-rule="evenodd" clip-rule="evenodd" d="M622.255 791.544L625.933 813.165L632.309 812.157L631.522 806.811C631.522 806.811 634.318 811.468 637.437 811.267C640.565 811.065 656.207 808.707 656.207 808.707C656.207 808.707 656.559 803.529 649.364 802.346C643.379 801.363 633.174 789.809 633.174 789.809L622.255 791.544Z" fill="#391B0B"/>
<path fill-rule="evenodd" clip-rule="evenodd" d="M534.704 696.171C534.704 696.171 521.872 723.35 539.905 732.682C557.344 741.708 603.748 730.063 603.748 730.063C603.748 730.063 602.815 737.596 603.748 744.314C606.184 761.861 618.166 783.449 619.256 787.007C619.805 788.798 633.169 786.151 633.169 784.026C633.169 781.901 626.351 733.537 625.137 723.236C623.93 712.934 620.118 711.438 608.986 708.622C606.428 707.975 573.282 700.436 570.511 700.656C546.705 702.544 534.704 696.171 534.704 696.171Z" fill="#42474F"/>
<path fill-rule="evenodd" clip-rule="evenodd" d="M570.511 700.656C573.282 700.436 606.428 707.975 608.986 708.622L610.814 709.091C620.309 711.575 623.828 713.428 625.051 722.547L625.38 725.165C626.382 732.804 629.09 750.769 631.233 765.725C628.815 760.228 626.814 754.129 625.23 747.427C621.538 731.808 622.328 718.982 621.337 716.736C620.345 714.49 571.857 707.32 563.526 705.84C559.899 705.196 557.854 703.599 557.389 701.048C561.415 701.161 565.789 701.031 570.511 700.656Z" fill="white" fill-opacity="0.192499"/>
<path fill-rule="evenodd" clip-rule="evenodd" d="M564.202 591.877C568.054 592.299 567.781 599.08 563.092 599.434C562.134 605.97 558.716 609.084 554.549 609.444L554.78 619.331L536.347 619.32C536.347 619.32 541.538 612.336 541.279 602.775C541.02 593.213 541.453 584.231 541.453 584.231L565.327 584.66L564.202 591.877Z" fill="url(#paint24_linear_6_347)"/>
<path fill-rule="evenodd" clip-rule="evenodd" d="M565.04 592.385C560.553 590.609 557.239 598.257 553.806 603.573C550.373 608.889 541.48 607.985 540.254 603.573C535.613 593.908 531.614 580.769 537.029 579.691C537.792 565.723 574.306 569.021 565.04 592.385Z" fill="#9E5229"/>
<path fill-rule="evenodd" clip-rule="evenodd" d="M540.016 574.156H547.929H548.04L548.115 574.239C555.144 582.095 556.718 593.664 553.433 604.099C553.179 604.427 552.903 604.727 552.608 605.001C556.286 594.471 554.877 582.618 547.817 574.656H539.428C539.615 574.483 539.811 574.316 540.016 574.156Z" fill="black" fill-opacity="0.199355"/>
<ellipse cx="4.4008" cy="4.40615" rx="4.4008" ry="4.40615" transform="matrix(-1 0 0 1 549.268 570)" fill="#FB9934"/>
<path fill-rule="evenodd" clip-rule="evenodd" d="M568.708 621.001C572.788 626.987 579.589 647.303 579.975 651.873C580.409 657.145 574.749 665.544 574.656 673.176C574.574 680.809 578.878 699.915 577.585 702.062C576.302 704.209 533.688 716.621 531.288 715.601C528.887 714.581 520.6 703.581 522.494 699.11C524.398 694.64 532.264 684.499 531.363 678.408C530.474 672.318 525.306 649.836 522.74 642.184C520.184 634.532 521.036 626.499 525.806 623.206C528.167 621.577 534.465 616.948 545.681 616.97C556.897 616.991 568.391 620.537 568.708 621.001Z" fill="#FF9F43"/>
<path fill-rule="evenodd" clip-rule="evenodd" d="M577.855 646.966L558.3 632.915L558.306 635.483C558.378 651.33 559.376 659.724 575.973 685.695L575.589 683.048C575.048 679.206 574.629 675.608 574.656 673.176C574.714 668.361 576.989 663.241 578.551 658.793L577.855 646.966Z" fill="black" fill-opacity="0.159856"/>
<path fill-rule="evenodd" clip-rule="evenodd" d="M556.043 616.532C556.043 616.532 556.515 619.106 554.449 619.106C552.382 619.106 538.522 619.562 536.646 618.748C534.769 617.934 535.332 616.532 535.332 616.532H556.043Z" fill="#FFF6E1"/>
<path fill-rule="evenodd" clip-rule="evenodd" d="M625.124 651.861C625.124 651.861 636.41 644.328 638.405 642.815C640.393 641.309 642.888 629.885 641.342 628.283C640.595 627.507 634.948 632.725 633.941 633.424C632.941 634.116 627.82 637.2 627.82 637.2C627.82 637.2 629.269 628.456 628.022 627.751C627.099 627.238 625.254 629.488 625.007 631.866C624.76 634.244 622.194 637.347 621.862 640.956C621.713 642.533 621.129 644.577 621.129 644.577L589.813 658.025L593.09 672.648L625.124 651.861Z" fill="url(#paint25_linear_6_347)"/>
<path fill-rule="evenodd" clip-rule="evenodd" d="M557.906 637.416C562.231 646.4 569.576 659.534 573.61 667.235C578.384 676.349 584.073 680.21 595.547 673.448C596.89 672.656 599.795 670.892 599.795 670.892L592.691 655.12L588.963 656.768C588.963 656.768 577.974 636.701 573.412 627.067C567.608 614.822 549.536 620.03 557.906 637.416Z" fill="#FFB66F"/>
<path fill-rule="evenodd" clip-rule="evenodd" d="M588.964 656.768C588.964 656.768 590.973 663.842 591.448 663.563C591.922 663.283 591.115 655.753 591.115 655.753L588.964 656.768Z" fill="black" fill-opacity="0.159856"/>
<path fill-rule="evenodd" clip-rule="evenodd" d="M592.591 654.423L597.539 674.058L604.9 670.077L595.24 652.894L592.591 654.423Z" fill="#FFEDC2"/>
<path fill-rule="evenodd" clip-rule="evenodd" d="M545.338 571.15C545.338 571.15 541.189 565.84 536.399 567.233C531.608 568.626 527.275 577.165 529.332 585.191C531.379 593.219 529.691 597.797 527.208 603.207C520.536 617.76 543.634 627 543.634 627C543.634 627 541.832 616.217 545.338 609.705C548.948 602.999 550.998 594.399 550.998 589.137C550.998 579.986 545.338 571.15 545.338 571.15Z" fill="#9E5229"/>
<path fill-rule="evenodd" clip-rule="evenodd" d="M544.657 734.221L556.1 815.179L550.1 815.1L538.657 735.067L544.657 734.221Z" fill="#91D6FF"/>
<path fill-rule="evenodd" clip-rule="evenodd" d="M577.955 734.221L589.398 815.179L583.399 815.1L571.956 735.067L577.955 734.221Z" fill="#91D6FF"/>
<path fill-rule="evenodd" clip-rule="evenodd" d="M504.91 734.221L493.467 815.179L499.466 815.1L510.909 735.067L504.91 734.221Z" fill="#BFE7FF"/>
<path fill-rule="evenodd" clip-rule="evenodd" d="M582.332 738.983C587.549 738.983 591.777 734.754 591.777 729.538C591.777 724.321 587.549 720.092 582.332 720.092H544.57C538.848 720.092 534.066 715.739 533.531 710.043L527.493 645.85C526.957 640.153 522.175 635.8 516.453 635.8H492.753C486.295 635.8 481.203 641.298 481.698 647.737L487.922 728.744C488.366 734.522 493.183 738.983 498.978 738.983H582.332Z" fill="#BFE7FF"/>
<path fill-rule="evenodd" clip-rule="evenodd" d="M591.776 729.457C591.724 729.458 591.672 729.458 591.619 729.458H539.636C533.843 729.458 529.026 724.998 528.581 719.222L522.274 637.363C525.218 639.121 527.292 642.21 527.635 645.847L533.668 709.806C534.205 715.501 538.986 719.853 544.707 719.853H582.357C587.56 719.853 591.777 724.071 591.777 729.274C591.777 729.335 591.777 729.396 591.776 729.457Z" fill="#91D6FF"/>
</g>
<defs>
<filter id="filter0_dd_6_347" x="183.855" y="356.008" width="191.801" height="107.428" filterUnits="userSpaceOnUse" color-interpolation-filters="sRGB">
<feFlood flood-opacity="0" result="BackgroundImageFix"/>
<feColorMatrix in="SourceAlpha" type="matrix" values="0 0 0 0 0 0 0 0 0 0 0 0 0 0 0 0 0 0 127 0" result="hardAlpha"/>
<feOffset dx="8" dy="9"/>
<feGaussianBlur stdDeviation="14"/>
<feColorMatrix type="matrix" values="0 0 0 0 0.0755213 0 0 0 0 0.582569 0 0 0 0 0.878793 0 0 0 0.229458 0"/>
<feBlend mode="normal" in2="BackgroundImageFix" result="effect1_dropShadow_6_347"/>
<feColorMatrix in="SourceAlpha" type="matrix" values="0 0 0 0 0 0 0 0 0 0 0 0 0 0 0 0 0 0 127 0" result="hardAlpha"/>
<feOffset dy="2"/>
<feGaussianBlur stdDeviation="7.5"/>
<feColorMatrix type="matrix" values="0 0 0 0 0.503982 0 0 0 0 0.700178 0 0 0 0 1 0 0 0 0.233829 0"/>
<feBlend mode="normal" in2="effect1_dropShadow_6_347" result="effect2_dropShadow_6_347"/>
<feBlend mode="normal" in="SourceGraphic" in2="effect2_dropShadow_6_347" result="shape"/>
</filter>
<filter id="filter1_dd_6_347" x="183.855" y="414.592" width="224.949" height="198.68" filterUnits="userSpaceOnUse" color-interpolation-filters="sRGB">
<feFlood flood-opacity="0" result="BackgroundImageFix"/>
<feColorMatrix in="SourceAlpha" type="matrix" values="0 0 0 0 0 0 0 0 0 0 0 0 0 0 0 0 0 0 127 0" result="hardAlpha"/>
<feOffset dx="8" dy="9"/>
<feGaussianBlur stdDeviation="14"/>
<feColorMatrix type="matrix" values="0 0 0 0 0.0755213 0 0 0 0 0.582569 0 0 0 0 0.878793 0 0 0 0.229458 0"/>
<feBlend mode="normal" in2="BackgroundImageFix" result="effect1_dropShadow_6_347"/>
<feColorMatrix in="SourceAlpha" type="matrix" values="0 0 0 0 0 0 0 0 0 0 0 0 0 0 0 0 0 0 127 0" result="hardAlpha"/>
<feOffset dy="2"/>
<feGaussianBlur stdDeviation="7.5"/>
<feColorMatrix type="matrix" values="0 0 0 0 0.503982 0 0 0 0 0.700178 0 0 0 0 1 0 0 0 0.233829 0"/>
<feBlend mode="normal" in2="effect1_dropShadow_6_347" result="effect2_dropShadow_6_347"/>
<feBlend mode="normal" in="SourceGraphic" in2="effect2_dropShadow_6_347" result="shape"/>
</filter>
<filter id="filter2_d_6_347" x="209.506" y="475.89" width="161.424" height="97.3127" filterUnits="userSpaceOnUse" color-interpolation-filters="sRGB">
<feFlood flood-opacity="0" result="BackgroundImageFix"/>
<feColorMatrix in="SourceAlpha" type="matrix" values="0 0 0 0 0 0 0 0 0 0 0 0 0 0 0 0 0 0 127 0" result="hardAlpha"/>
<feOffset dy="13"/>
<feGaussianBlur stdDeviation="7.5"/>
<feColorMatrix type="matrix" values="0 0 0 0 0 0 0 0 0 0 0 0 0 0 0 0 0 0 0.144395 0"/>
<feBlend mode="normal" in2="BackgroundImageFix" result="effect1_dropShadow_6_347"/>
<feBlend mode="normal" in="SourceGraphic" in2="effect1_dropShadow_6_347" result="shape"/>
</filter>
<filter id="filter3_d_6_347" x="389.232" y="378.237" width="272.182" height="197.485" filterUnits="userSpaceOnUse" color-interpolation-filters="sRGB">
<feFlood flood-opacity="0" result="BackgroundImageFix"/>
<feColorMatrix in="SourceAlpha" type="matrix" values="0 0 0 0 0 0 0 0 0 0 0 0 0 0 0 0 0 0 127 0" result="hardAlpha"/>
<feOffset dx="6" dy="6"/>
<feGaussianBlur stdDeviation="8"/>
<feColorMatrix type="matrix" values="0 0 0 0 0.70188 0 0 0 0 0.70188 0 0 0 0 0.70188 0 0 0 0.208725 0"/>
<feBlend mode="normal" in2="BackgroundImageFix" result="effect1_dropShadow_6_347"/>
<feBlend mode="normal" in="SourceGraphic" in2="effect1_dropShadow_6_347" result="shape"/>
</filter>
<linearGradient id="paint0_linear_6_347" x1="667.831" y1="584.939" x2="656.751" y2="634.416" gradientUnits="userSpaceOnUse">
<stop stop-color="#FFAFAF"/>
<stop offset="1" stop-color="#F07777"/>
</linearGradient>
<linearGradient id="paint1_linear_6_347" x1="666.971" y1="575.545" x2="660.323" y2="608.064" gradientUnits="userSpaceOnUse">
<stop stop-color="#FDC6C6"/>
<stop offset="1" stop-color="#FAB2B2"/>
</linearGradient>
<linearGradient id="paint2_linear_6_347" x1="619.96" y1="778.352" x2="618.367" y2="808.133" gradientUnits="userSpaceOnUse">
<stop stop-color="#FDC6C6"/>
<stop offset="1" stop-color="#FAB2B2"/>
</linearGradient>
<linearGradient id="paint3_linear_6_347" x1="588.89" y1="816.704" x2="540.815" y2="724.427" gradientUnits="userSpaceOnUse">
<stop stop-color="#28324F"/>
<stop offset="1" stop-color="#222735"/>
</linearGradient>
<linearGradient id="paint4_linear_6_347" x1="583.77" y1="613.915" x2="581.618" y2="642.518" gradientUnits="userSpaceOnUse">
<stop stop-color="#FDC6C6"/>
<stop offset="1" stop-color="#FAB2B2"/>
</linearGradient>
<linearGradient id="paint5_linear_6_347" x1="662.733" y1="643.46" x2="662.102" y2="661.93" gradientUnits="userSpaceOnUse">
<stop stop-color="#FDC6C6"/>
<stop offset="1" stop-color="#FAB2B2"/>
</linearGradient>
<linearGradient id="paint6_linear_6_347" x1="355.336" y1="475.269" x2="345.447" y2="476.194" gradientUnits="userSpaceOnUse">
<stop stop-color="#4D63A0"/>
<stop offset="1" stop-color="#222735"/>
</linearGradient>
<linearGradient id="paint7_linear_6_347" x1="240.011" y1="674.433" x2="240.011" y2="690.998" gradientUnits="userSpaceOnUse">
<stop stop-color="#FE62BE"/>
<stop offset="1" stop-color="#FDB3A8"/>
</linearGradient>
<linearGradient id="paint8_linear_6_347" x1="216.289" y1="661.795" x2="218.02" y2="678.27" gradientUnits="userSpaceOnUse">
<stop stop-color="#FE62BE"/>
<stop offset="1" stop-color="#FDB3A8"/>
</linearGradient>
<linearGradient id="paint9_linear_6_347" x1="777.727" y1="776.858" x2="776.131" y2="806.708" gradientUnits="userSpaceOnUse">
<stop stop-color="#FDC6C6"/>
<stop offset="1" stop-color="#FAB2B2"/>
</linearGradient>
<linearGradient id="paint10_linear_6_347" x1="773.093" y1="604.529" x2="768.853" y2="665.079" gradientUnits="userSpaceOnUse">
<stop stop-color="#FDC6C6"/>
<stop offset="1" stop-color="#FAB2B2"/>
</linearGradient>
<linearGradient id="paint11_linear_6_347" x1="827.443" y1="580.528" x2="816.218" y2="630.065" gradientUnits="userSpaceOnUse">
<stop stop-color="#FFAFAF"/>
<stop offset="1" stop-color="#F07777"/>
</linearGradient>
<linearGradient id="paint12_linear_6_347" x1="826.685" y1="571.112" x2="820.025" y2="603.709" gradientUnits="userSpaceOnUse">
<stop stop-color="#FDC6C6"/>
<stop offset="1" stop-color="#FAB2B2"/>
</linearGradient>
<linearGradient id="paint13_linear_6_347" x1="742.45" y1="778.061" x2="740.889" y2="811.334" gradientUnits="userSpaceOnUse">
<stop stop-color="#FDC6C6"/>
<stop offset="1" stop-color="#FAB2B2"/>
</linearGradient>
<linearGradient id="paint14_linear_6_347" x1="852.378" y1="637.401" x2="850.871" y2="676.785" gradientUnits="userSpaceOnUse">
<stop stop-color="#FDC6C6"/>
<stop offset="1" stop-color="#FAB2B2"/>
</linearGradient>
<linearGradient id="paint15_linear_6_347" x1="699.221" y1="607.275" x2="711.146" y2="655.102" gradientUnits="userSpaceOnUse">
<stop stop-color="#9FF6EC"/>
<stop offset="1" stop-color="#7D9DFF"/>
</linearGradient>
<linearGradient id="paint16_linear_6_347" x1="404.949" y1="663.304" x2="416.7" y2="689.424" gradientUnits="userSpaceOnUse">
<stop stop-color="#FDC6C6"/>
<stop offset="1" stop-color="#A47070"/>
</linearGradient>
<linearGradient id="paint17_linear_6_347" x1="435.015" y1="564.839" x2="431.539" y2="611.739" gradientUnits="userSpaceOnUse">
<stop stop-color="#FDC6C6"/>
<stop offset="1" stop-color="#A47070"/>
</linearGradient>
<linearGradient id="paint18_linear_6_347" x1="520.317" y1="616.095" x2="517.967" y2="648.735" gradientUnits="userSpaceOnUse">
<stop stop-color="#FDC6C6"/>
<stop offset="1" stop-color="#A47070"/>
</linearGradient>
<linearGradient id="paint19_linear_6_347" x1="665.736" y1="666.207" x2="665.736" y2="669.386" gradientUnits="userSpaceOnUse">
<stop stop-color="#9FF6EC"/>
<stop offset="1" stop-color="#7D9DFF"/>
</linearGradient>
<linearGradient id="paint20_linear_6_347" x1="672.029" y1="618.282" x2="672.029" y2="666.909" gradientUnits="userSpaceOnUse">
<stop stop-color="#9FF6EC"/>
<stop offset="1" stop-color="#7D9DFF"/>
</linearGradient>
<linearGradient id="paint21_linear_6_347" x1="535.208" y1="641.874" x2="555.753" y2="688.819" gradientUnits="userSpaceOnUse">
<stop stop-color="#FDC6C6"/>
<stop offset="1" stop-color="#FFCCA1"/>
</linearGradient>
<linearGradient id="paint22_linear_6_347" x1="573.365" y1="769.881" x2="570.668" y2="798.059" gradientUnits="userSpaceOnUse">
<stop stop-color="#FDC6C6"/>
<stop offset="1" stop-color="#FAB2B2"/>
</linearGradient>
<linearGradient id="paint23_linear_6_347" x1="639.04" y1="769.123" x2="636.808" y2="795.105" gradientUnits="userSpaceOnUse">
<stop stop-color="#FDC6C6"/>
<stop offset="1" stop-color="#FAB2B2"/>
</linearGradient>
<linearGradient id="paint24_linear_6_347" x1="572.153" y1="575.686" x2="569.055" y2="617.483" gradientUnits="userSpaceOnUse">
<stop stop-color="#FDC6C6"/>
<stop offset="1" stop-color="#FFCCA1"/>
</linearGradient>
<linearGradient id="paint25_linear_6_347" x1="650.824" y1="616.73" x2="647.833" y2="670.407" gradientUnits="userSpaceOnUse">
<stop stop-color="#FDC6C6"/>
<stop offset="1" stop-color="#FFCCA1"/>
</linearGradient>
<clipPath id="clip0_6_347">
<rect width="956" height="1080" fill="white"/>
</clipPath>
</defs>
</svg>
